G04*
G04 #@! TF.GenerationSoftware,Altium Limited,Altium Designer,22.0.2 (36)*
G04*
G04 Layer_Color=255*
%FSLAX25Y25*%
%MOIN*%
G70*
G04*
G04 #@! TF.SameCoordinates,06085A55-5152-446A-B416-8F2777D31781*
G04*
G04*
G04 #@! TF.FilePolarity,Positive*
G04*
G01*
G75*
%ADD29R,0.05906X0.02992*%
%ADD30R,0.06693X0.03937*%
G04:AMPARAMS|DCode=31|XSize=39.37mil|YSize=35.43mil|CornerRadius=4.43mil|HoleSize=0mil|Usage=FLASHONLY|Rotation=180.000|XOffset=0mil|YOffset=0mil|HoleType=Round|Shape=RoundedRectangle|*
%AMROUNDEDRECTD31*
21,1,0.03937,0.02657,0,0,180.0*
21,1,0.03051,0.03543,0,0,180.0*
1,1,0.00886,-0.01526,0.01329*
1,1,0.00886,0.01526,0.01329*
1,1,0.00886,0.01526,-0.01329*
1,1,0.00886,-0.01526,-0.01329*
%
%ADD31ROUNDEDRECTD31*%
G04:AMPARAMS|DCode=32|XSize=39.37mil|YSize=35.43mil|CornerRadius=4.43mil|HoleSize=0mil|Usage=FLASHONLY|Rotation=270.000|XOffset=0mil|YOffset=0mil|HoleType=Round|Shape=RoundedRectangle|*
%AMROUNDEDRECTD32*
21,1,0.03937,0.02657,0,0,270.0*
21,1,0.03051,0.03543,0,0,270.0*
1,1,0.00886,-0.01329,-0.01526*
1,1,0.00886,-0.01329,0.01526*
1,1,0.00886,0.01329,0.01526*
1,1,0.00886,0.01329,-0.01526*
%
%ADD32ROUNDEDRECTD32*%
%ADD33R,0.03543X0.01181*%
G04:AMPARAMS|DCode=35|XSize=11.81mil|YSize=70.87mil|CornerRadius=0mil|HoleSize=0mil|Usage=FLASHONLY|Rotation=45.000|XOffset=0mil|YOffset=0mil|HoleType=Round|Shape=Round|*
%AMOVALD35*
21,1,0.05906,0.01181,0.00000,0.00000,135.0*
1,1,0.01181,0.02088,-0.02088*
1,1,0.01181,-0.02088,0.02088*
%
%ADD35OVALD35*%

G04:AMPARAMS|DCode=36|XSize=11.81mil|YSize=70.87mil|CornerRadius=0mil|HoleSize=0mil|Usage=FLASHONLY|Rotation=315.000|XOffset=0mil|YOffset=0mil|HoleType=Round|Shape=Round|*
%AMOVALD36*
21,1,0.05906,0.01181,0.00000,0.00000,45.0*
1,1,0.01181,-0.02088,-0.02088*
1,1,0.01181,0.02088,0.02088*
%
%ADD36OVALD36*%

%ADD37R,0.25000X0.14213*%
%ADD38O,0.01181X0.05512*%
%ADD39R,0.02756X0.03347*%
%ADD40R,0.03347X0.02756*%
G04:AMPARAMS|DCode=41|XSize=23.62mil|YSize=23.62mil|CornerRadius=2.36mil|HoleSize=0mil|Usage=FLASHONLY|Rotation=90.000|XOffset=0mil|YOffset=0mil|HoleType=Round|Shape=RoundedRectangle|*
%AMROUNDEDRECTD41*
21,1,0.02362,0.01890,0,0,90.0*
21,1,0.01890,0.02362,0,0,90.0*
1,1,0.00472,0.00945,0.00945*
1,1,0.00472,0.00945,-0.00945*
1,1,0.00472,-0.00945,-0.00945*
1,1,0.00472,-0.00945,0.00945*
%
%ADD41ROUNDEDRECTD41*%
G04:AMPARAMS|DCode=42|XSize=31.5mil|YSize=31.5mil|CornerRadius=3.94mil|HoleSize=0mil|Usage=FLASHONLY|Rotation=0.000|XOffset=0mil|YOffset=0mil|HoleType=Round|Shape=RoundedRectangle|*
%AMROUNDEDRECTD42*
21,1,0.03150,0.02362,0,0,0.0*
21,1,0.02362,0.03150,0,0,0.0*
1,1,0.00787,0.01181,-0.01181*
1,1,0.00787,-0.01181,-0.01181*
1,1,0.00787,-0.01181,0.01181*
1,1,0.00787,0.01181,0.01181*
%
%ADD42ROUNDEDRECTD42*%
%ADD49R,0.09803X0.11811*%
%ADD67C,0.03000*%
%ADD68C,0.00984*%
%ADD69C,0.03937*%
%ADD70R,0.05906X0.18504*%
%ADD71R,0.04528X0.02756*%
%ADD72R,0.08661X0.16535*%
%ADD78O,0.08300X0.06700*%
%ADD79C,0.05906*%
%ADD80C,0.29528*%
%ADD81C,0.11811*%
%ADD82R,0.05906X0.05906*%
%ADD83C,0.09449*%
D29*
X38780Y146457D02*
D03*
Y141457D02*
D03*
X68780Y146457D02*
D03*
Y141457D02*
D03*
D30*
X502165Y131102D02*
D03*
X493898D02*
D03*
D31*
X329134Y154528D02*
D03*
Y161221D02*
D03*
X47244Y93898D02*
D03*
Y87205D02*
D03*
X62992Y93898D02*
D03*
Y87205D02*
D03*
X88582Y93898D02*
D03*
Y87205D02*
D03*
X114173Y93898D02*
D03*
Y87205D02*
D03*
X129921Y93898D02*
D03*
Y87205D02*
D03*
X155512Y93898D02*
D03*
Y87205D02*
D03*
X192913Y93898D02*
D03*
Y87205D02*
D03*
X407480Y126575D02*
D03*
Y133268D02*
D03*
X356299Y93898D02*
D03*
Y87205D02*
D03*
X372047Y87204D02*
D03*
Y93897D02*
D03*
X501968Y87204D02*
D03*
Y93897D02*
D03*
X464567Y87204D02*
D03*
Y93898D02*
D03*
X531496Y87204D02*
D03*
Y93897D02*
D03*
X438976Y87204D02*
D03*
Y93897D02*
D03*
X397638Y87204D02*
D03*
Y93898D02*
D03*
X423228Y93898D02*
D03*
Y87205D02*
D03*
D32*
X339961Y133071D02*
D03*
X333268D02*
D03*
X215157Y87795D02*
D03*
X221850D02*
D03*
X236023Y98425D02*
D03*
X242717D02*
D03*
X284055Y97638D02*
D03*
X290748D02*
D03*
X303740Y108268D02*
D03*
X310433D02*
D03*
D33*
X269272Y103937D02*
D03*
Y107087D02*
D03*
Y100787D02*
D03*
Y97638D02*
D03*
X254350Y107087D02*
D03*
Y100787D02*
D03*
Y103937D02*
D03*
Y97638D02*
D03*
D35*
X308877Y144118D02*
D03*
X306093Y141334D02*
D03*
X296350Y131590D02*
D03*
X299133Y134374D02*
D03*
X317229Y152469D02*
D03*
X314445Y149685D02*
D03*
X315837Y151077D02*
D03*
X273800Y170843D02*
D03*
X272408Y169451D02*
D03*
X277976Y175019D02*
D03*
X266840Y163883D02*
D03*
X265448Y162491D02*
D03*
X271016Y168059D02*
D03*
X268232Y165275D02*
D03*
X269624Y166667D02*
D03*
X283544Y180587D02*
D03*
X286328Y183370D02*
D03*
X284936Y181978D02*
D03*
X282152Y179195D02*
D03*
X279368Y176411D02*
D03*
X280760Y177803D02*
D03*
X307485Y142726D02*
D03*
X297742Y132982D02*
D03*
X310269Y145510D02*
D03*
X300525Y135766D02*
D03*
X304701Y139942D02*
D03*
X303309Y138550D02*
D03*
X301917Y137158D02*
D03*
X313053Y148294D02*
D03*
X311661Y146902D02*
D03*
X275192Y172235D02*
D03*
X276584Y173627D02*
D03*
D36*
X286328Y131590D02*
D03*
X284936Y132982D02*
D03*
X283544Y134374D02*
D03*
X282152Y135766D02*
D03*
X280760Y137158D02*
D03*
X279368Y138550D02*
D03*
X277976Y139942D02*
D03*
X276584Y141334D02*
D03*
X275192Y142726D02*
D03*
X273800Y144118D02*
D03*
X272408Y145510D02*
D03*
X271016Y146902D02*
D03*
X269624Y148293D02*
D03*
X268232Y149685D02*
D03*
X266840Y151077D02*
D03*
X265448Y152469D02*
D03*
X317229Y162491D02*
D03*
X307485Y172235D02*
D03*
X306093Y173627D02*
D03*
X304701Y175019D02*
D03*
X303309Y176410D02*
D03*
X301917Y177803D02*
D03*
X300525Y179195D02*
D03*
X299133Y180587D02*
D03*
X297742Y181978D02*
D03*
X296350Y183370D02*
D03*
X315837Y163883D02*
D03*
X311661Y168059D02*
D03*
X310269Y169451D02*
D03*
X308877Y170843D02*
D03*
X313053Y166667D02*
D03*
X314445Y165275D02*
D03*
D37*
X456693Y141732D02*
D03*
X132283D02*
D03*
D38*
X430118Y126772D02*
D03*
X432087D02*
D03*
X434055D02*
D03*
X436024D02*
D03*
X437992D02*
D03*
X439960D02*
D03*
X441929D02*
D03*
X443898D02*
D03*
X445866D02*
D03*
X447835D02*
D03*
X449803D02*
D03*
X451772D02*
D03*
X453740D02*
D03*
X455709D02*
D03*
X457677D02*
D03*
X459646D02*
D03*
X461614D02*
D03*
X463583D02*
D03*
X465551D02*
D03*
X467520D02*
D03*
X469488D02*
D03*
X471457D02*
D03*
X473425D02*
D03*
X475394D02*
D03*
X477362D02*
D03*
X479331D02*
D03*
X481299D02*
D03*
X483268D02*
D03*
X430118Y156693D02*
D03*
X432087D02*
D03*
X434055D02*
D03*
X436024D02*
D03*
X437992D02*
D03*
X439960D02*
D03*
X441929D02*
D03*
X443898D02*
D03*
X445866D02*
D03*
X447835D02*
D03*
X449803D02*
D03*
X451772D02*
D03*
X453740D02*
D03*
X455709D02*
D03*
X457677D02*
D03*
X459646D02*
D03*
X461614D02*
D03*
X463583D02*
D03*
X465551D02*
D03*
X467520D02*
D03*
X469488D02*
D03*
X471457D02*
D03*
X473425D02*
D03*
X475394D02*
D03*
X477362D02*
D03*
X479331D02*
D03*
X481299D02*
D03*
X483268D02*
D03*
X105709Y126772D02*
D03*
X107677D02*
D03*
X109646D02*
D03*
X111614D02*
D03*
X113583D02*
D03*
X115551D02*
D03*
X117520D02*
D03*
X119488D02*
D03*
X121457D02*
D03*
X123425D02*
D03*
X125394D02*
D03*
X127362D02*
D03*
X129331D02*
D03*
X131299D02*
D03*
X133268D02*
D03*
X135236D02*
D03*
X137205D02*
D03*
X139173D02*
D03*
X141142D02*
D03*
X143110D02*
D03*
X145079D02*
D03*
X147047D02*
D03*
X149016D02*
D03*
X150984D02*
D03*
X152953D02*
D03*
X154921D02*
D03*
X156890D02*
D03*
X158858D02*
D03*
X105709Y156693D02*
D03*
X107677D02*
D03*
X109646D02*
D03*
X111614D02*
D03*
X113583D02*
D03*
X115551D02*
D03*
X129331D02*
D03*
X131299D02*
D03*
X133268D02*
D03*
X135236D02*
D03*
X137205D02*
D03*
X147047D02*
D03*
X150984D02*
D03*
X152953D02*
D03*
X154921D02*
D03*
X156890D02*
D03*
X158858D02*
D03*
X127362D02*
D03*
X121457D02*
D03*
X119488D02*
D03*
X117520D02*
D03*
X123425D02*
D03*
X125394D02*
D03*
X141142D02*
D03*
X139173D02*
D03*
X143110D02*
D03*
X145079D02*
D03*
X149016D02*
D03*
D39*
X265551Y182283D02*
D03*
X260433D02*
D03*
X265551Y177165D02*
D03*
X260433D02*
D03*
X269488Y113779D02*
D03*
X274606D02*
D03*
D40*
X423228Y121457D02*
D03*
Y126575D02*
D03*
X255118Y170669D02*
D03*
Y175787D02*
D03*
X250000Y170669D02*
D03*
Y175787D02*
D03*
X98819Y121457D02*
D03*
Y126575D02*
D03*
D41*
X405512Y85433D02*
D03*
X409449D02*
D03*
X96457D02*
D03*
X100394D02*
D03*
X306299D02*
D03*
X302362D02*
D03*
D42*
X524606Y150787D02*
D03*
X531299D02*
D03*
D49*
X261811Y102362D02*
D03*
D67*
X330709Y193307D02*
D03*
X336614D02*
D03*
X318898D02*
D03*
X342520D02*
D03*
X348425D02*
D03*
X324803D02*
D03*
D68*
X261811Y109843D02*
D03*
Y107874D02*
D03*
D69*
X539370Y110236D02*
D03*
X30709Y176772D02*
D03*
D70*
X239173Y51181D02*
D03*
X105315Y51181D02*
D03*
X75787Y72835D02*
D03*
X142717Y51181D02*
D03*
X172244Y51181D02*
D03*
X209646Y51181D02*
D03*
X239173Y72835D02*
D03*
X142717D02*
D03*
X209646D02*
D03*
X172244D02*
D03*
X75787Y51181D02*
D03*
X105315Y72835D02*
D03*
X481299Y51181D02*
D03*
X481299Y72835D02*
D03*
X518701D02*
D03*
X414370Y51181D02*
D03*
X384842Y51181D02*
D03*
X518701D02*
D03*
X414370Y72835D02*
D03*
X384842D02*
D03*
X346260Y72834D02*
D03*
X346260Y51181D02*
D03*
X308858Y72834D02*
D03*
X548228Y51181D02*
D03*
X451772Y51181D02*
D03*
Y72835D02*
D03*
X308858Y51181D02*
D03*
X548228Y72835D02*
D03*
D71*
X217618Y53681D02*
D03*
Y58681D02*
D03*
Y48681D02*
D03*
Y43681D02*
D03*
X83760Y53681D02*
D03*
Y58681D02*
D03*
Y48681D02*
D03*
Y43681D02*
D03*
X54232Y75335D02*
D03*
Y80335D02*
D03*
Y70335D02*
D03*
Y65335D02*
D03*
X121161Y53681D02*
D03*
Y58681D02*
D03*
Y48681D02*
D03*
Y43681D02*
D03*
X150689Y53681D02*
D03*
Y58681D02*
D03*
Y48681D02*
D03*
Y43681D02*
D03*
X188090Y53681D02*
D03*
Y58681D02*
D03*
Y48681D02*
D03*
Y43681D02*
D03*
X217618Y75335D02*
D03*
Y80335D02*
D03*
Y70335D02*
D03*
Y65335D02*
D03*
X121161Y75335D02*
D03*
Y80335D02*
D03*
Y70335D02*
D03*
Y65335D02*
D03*
X188090Y75335D02*
D03*
Y80335D02*
D03*
Y70335D02*
D03*
Y65335D02*
D03*
X150689Y75335D02*
D03*
Y80335D02*
D03*
Y70335D02*
D03*
Y65335D02*
D03*
X54232Y53681D02*
D03*
Y58681D02*
D03*
Y48681D02*
D03*
Y43681D02*
D03*
X83760Y75335D02*
D03*
Y80335D02*
D03*
Y70335D02*
D03*
Y65335D02*
D03*
X459744Y53681D02*
D03*
Y58681D02*
D03*
Y48681D02*
D03*
Y43681D02*
D03*
X459744Y75335D02*
D03*
Y80335D02*
D03*
Y70335D02*
D03*
Y65335D02*
D03*
X497146Y75335D02*
D03*
Y80335D02*
D03*
Y70335D02*
D03*
Y65335D02*
D03*
X392815Y53681D02*
D03*
Y58681D02*
D03*
Y48681D02*
D03*
Y43681D02*
D03*
X363287Y53681D02*
D03*
Y58681D02*
D03*
Y48681D02*
D03*
Y43681D02*
D03*
X497146Y53681D02*
D03*
Y58681D02*
D03*
Y48681D02*
D03*
Y43681D02*
D03*
X392815Y75335D02*
D03*
Y80335D02*
D03*
Y70335D02*
D03*
Y65335D02*
D03*
X363287Y75335D02*
D03*
Y80335D02*
D03*
Y70335D02*
D03*
Y65335D02*
D03*
X324705Y75335D02*
D03*
Y80335D02*
D03*
Y70335D02*
D03*
Y65334D02*
D03*
X324705Y53681D02*
D03*
Y58681D02*
D03*
Y48681D02*
D03*
Y43681D02*
D03*
X287303Y75335D02*
D03*
Y80335D02*
D03*
Y70335D02*
D03*
Y65334D02*
D03*
X526673Y53681D02*
D03*
Y58681D02*
D03*
Y48681D02*
D03*
Y43681D02*
D03*
X430217Y53681D02*
D03*
Y58681D02*
D03*
Y48681D02*
D03*
Y43681D02*
D03*
Y75335D02*
D03*
Y80335D02*
D03*
Y70335D02*
D03*
Y65335D02*
D03*
X287303Y53681D02*
D03*
Y58681D02*
D03*
Y48681D02*
D03*
Y43681D02*
D03*
X526673Y75335D02*
D03*
Y80335D02*
D03*
Y70335D02*
D03*
Y65335D02*
D03*
D72*
X233661Y51181D02*
D03*
X228346D02*
D03*
X99803Y51181D02*
D03*
X94488D02*
D03*
X70275Y72835D02*
D03*
X64960D02*
D03*
X137205Y51181D02*
D03*
X131890D02*
D03*
X166732Y51181D02*
D03*
X161417D02*
D03*
X204134Y51181D02*
D03*
X198819D02*
D03*
X233661Y72835D02*
D03*
X228346D02*
D03*
X137205D02*
D03*
X131890D02*
D03*
X204134D02*
D03*
X198819D02*
D03*
X166732D02*
D03*
X161417D02*
D03*
X70275Y51181D02*
D03*
X64960D02*
D03*
X99803Y72835D02*
D03*
X94488D02*
D03*
X475787Y51181D02*
D03*
X470472D02*
D03*
X475787Y72835D02*
D03*
X470472D02*
D03*
X513189D02*
D03*
X507874D02*
D03*
X408858Y51181D02*
D03*
X403543D02*
D03*
X379331Y51181D02*
D03*
X374016D02*
D03*
X513189D02*
D03*
X507874D02*
D03*
X408858Y72835D02*
D03*
X403543D02*
D03*
X379331D02*
D03*
X374016D02*
D03*
X340748Y72834D02*
D03*
X335433D02*
D03*
X340748Y51181D02*
D03*
X335433D02*
D03*
X303346Y72834D02*
D03*
X298031D02*
D03*
X542717Y51181D02*
D03*
X537401D02*
D03*
X446260Y51181D02*
D03*
X440945D02*
D03*
X446260Y72835D02*
D03*
X440945D02*
D03*
X303346Y51181D02*
D03*
X298031D02*
D03*
X542717Y72835D02*
D03*
X537401D02*
D03*
D78*
X6710Y133143D02*
D03*
Y162943D02*
D03*
D79*
X348031Y144488D02*
D03*
X388032Y144488D02*
D03*
X378032D02*
D03*
X368032D02*
D03*
X358032D02*
D03*
X60394Y191339D02*
D03*
X70394D02*
D03*
X80394D02*
D03*
X90394D02*
D03*
X100394D02*
D03*
X110394D02*
D03*
X120394D02*
D03*
X130394D02*
D03*
X140394D02*
D03*
X150394D02*
D03*
X160394D02*
D03*
X170394D02*
D03*
X180394D02*
D03*
X190394D02*
D03*
X200394D02*
D03*
X210394D02*
D03*
X376142Y191732D02*
D03*
X386142D02*
D03*
X396142D02*
D03*
X406142D02*
D03*
X416142D02*
D03*
X426142D02*
D03*
X436142D02*
D03*
X446142D02*
D03*
X456142D02*
D03*
X466142D02*
D03*
X476142D02*
D03*
X220394Y191339D02*
D03*
X230000D02*
D03*
X240000D02*
D03*
D80*
X139764Y17717D02*
D03*
X102362D02*
D03*
X177165D02*
D03*
X486221D02*
D03*
X263779Y17717D02*
D03*
X411417Y17717D02*
D03*
X448819D02*
D03*
X309055Y17717D02*
D03*
X19685Y94488D02*
D03*
X19685Y53150D02*
D03*
D81*
X216535Y114567D02*
D03*
X49213D02*
D03*
X9843Y15748D02*
D03*
X216535Y21654D02*
D03*
X525591Y114567D02*
D03*
X543307Y187008D02*
D03*
X525591Y21654D02*
D03*
X49213D02*
D03*
X9843Y187008D02*
D03*
X368110Y114567D02*
D03*
Y21654D02*
D03*
X543307Y15748D02*
D03*
D82*
X338032Y144488D02*
D03*
X50394Y191339D02*
D03*
X366142Y191732D02*
D03*
D83*
X418898Y6299D02*
D03*
X448898D02*
D03*
X478898D02*
D03*
X109843D02*
D03*
X139842D02*
D03*
X169843D02*
D03*
X7087Y58976D02*
D03*
Y88976D02*
D03*
X301260Y6299D02*
D03*
X271260D02*
D03*
M02*
