M48
;Layer_Color=9474304
;FILE_FORMAT=2:5
INCH,LZ
;TYPE=PLATED
T1F00S00C0.01181
T2F00S00C0.01378
T3F00S00C0.01700
T4F00S00C0.03543
T5F00S00C0.04000
T6F00S00C0.05118
T7F00S00C0.13386
;TYPE=NON_PLATED
T8F00S00C0.13386
%
T01
X0094882Y0045669
X0098425Y0045669
X0101969Y0045669
X0106299Y004626
X0161811Y0045669
X0165354Y0045669
X0168898Y0045669
X0173228Y004626
X022874Y0045669
X0232283Y0045669
X0235827Y0045669
X0240157Y004626
X0335827Y0045669
X033937Y0045669
X0342913Y0045669
X0347244Y004626
X0403937Y0045669
X040748Y0045669
X0411024Y0045669
X0415354Y004626
X0470866Y0045669
X0474409Y0045669
X0477953Y0045669
X0482283Y004626
X0537795Y0045669
X0541338Y0045669
X0544882Y0045669
X0549213Y004626
X0549213Y0051181
X054685Y0048917
X0543602Y0048917
X0540256Y0048917
X0537008Y0048917
X0536909Y0053445
X0540157Y0053445
X0543504Y0053445
X0546752Y0053445
X0545275Y0056693
X0541732Y0056693
X0538189Y0056693
X0549213Y0056102
X0536221Y0150787
X0483858Y0151181
X0487008Y0156693
X0479134Y0162303
X0471654Y0162598
X0459055Y0161811
X0456298Y0163779
X0439764Y0163779
X0440945Y0151181
X0435433Y0151181
X0435039Y0144882
X0433071Y0136221
X0432676Y0131889
X0437007Y0135039
X0440945Y0133465
X0445866Y0137401
X0450197Y0137401
X0450197Y0141732
X0445866Y0141732
X0445866Y0146063
X0450197Y0146063
X0454528Y0146063
X0454528Y0141732
X0454528Y0137401
X0458858Y0137401
X0458858Y0141732
X0458858Y0146063
X0463189Y0146063
X0463189Y0141732
X0463189Y0137401
X046752Y0137401
X046752Y0141732
X046752Y0146063
X047244Y0132283
X0476378Y0132283
X0481496Y0133071
X0474803Y012126
X0470078Y012126
X0465747Y011811
X0458267Y0119291
X0453149Y0120866
X0446063Y0117323
X0443307Y0114961
X0431102Y008937
X0422835Y0080709
X0422834Y0076771
X0420866Y0076771
X0420866Y0074803
X0422834Y0074803
X0424803Y0074803
X0424803Y0076771
X0424803Y0072834
X0424803Y0070866
X0422834Y0070866
X0420866Y0070866
X0420866Y0072834
X0422834Y0072834
X0415354Y0056102
X0411417Y0056693
X0407874Y0056693
X0404331Y0056693
X0403051Y0053445
X0406299Y0053445
X0409646Y0053445
X0412894Y0053445
X0412992Y0048917
X0409744Y0048917
X0406398Y0048917
X040315Y0048917
X0415354Y0051181
X046998Y0053445
X0473228Y0053445
X0476575Y0053445
X0479823Y0053445
X0479921Y0048917
X0476673Y0048917
X0473327Y0048917
X0470079Y0048917
X047126Y0056693
X0474803Y0056693
X0478346Y0056693
X0482283Y0056102
X0482283Y0051181
X0487795Y0070866
X0487795Y0072834
X0487795Y0074803
X0487795Y0076771
X0489764Y0076771
X0491732Y0076771
X0491732Y0074803
X0489764Y0074803
X0489764Y0072834
X0491732Y0072834
X0491732Y0070866
X0489764Y0070866
X0409842Y0110236
X0405118Y0110236
X0404724Y0138583
X0408268Y0137795
X0409055Y0144882
X0408268Y0151575
X0404331Y0152362
X0408977Y0155741
X0409449Y0159055
X0412992Y0156299
X0414961Y0163386
X0422835Y016063
X0425983Y0163779
X0450787Y0184646
X0468898Y0179134
X037559Y0179921
X0373228Y0172047
X0369685Y0172047
X0364173Y0176771
X0361811Y0179921
X0361417Y0183071
X0358268Y0185039
X035Y018189
X0349605Y0176772
X0351969Y0173228
X0350102Y016919
X0351968Y0166535
X0358661Y0169291
X0346165Y0173126
X0338685Y0177851
X0333858Y0178347
X0334252Y0167717
X0331496Y0169685
X032874Y0172047
X0325984Y0173622
X0323622Y0176378
X0315354Y0182283
X0311811Y0182283
X0308268Y0182677
X0311024Y0185827
X0329528Y0188976
X0332677Y018937
X0336614Y0163386
X0303543Y0167323
X0298819Y0168898
X0290158Y0170472
X0286221Y0170472
X0282283Y0170472
X028937Y0176772
X027126Y0178347
X0268898Y0176378
X0270472Y0184252
X027441Y0185433
X0255512Y0181496
X0241339Y0183465
X0238189Y0182677
X0240551Y0172835
X0243701Y0172835
X0235039Y0172835
X0230709Y0175197
X0225197Y0176378
X0225197Y0173622
X0225197Y0170472
X0225197Y0164961
X0223622Y0156693
X0217717Y0158661
X0222835Y0142913
X022874Y0142913
X023189Y0140945
X0238976Y0142126
X0238189Y0137795
X0237795Y0130709
X0241338Y0130708
X0244881Y0130708
X0249212Y0130708
X0247329Y0120388
X0240944Y0118504
X0233071Y0114173
X0259842Y0106299
X0263779Y0106299
X0263779Y0102362
X0259842Y0102362
X0259842Y0098425
X0263779Y0098425
X026378Y0088583
X0265748Y0088583
X0265748Y0086614
X026378Y0086614
X026378Y0084646
X0265748Y0084646
X0267717Y0084646
X0267717Y0086614
X0269685Y0086614
X0269685Y0084646
X0269685Y0082677
X0269685Y0080709
X0267717Y0080709
X0267717Y0082677
X0265748Y0082677
X0265748Y0080709
X0263779Y0080709
X0263779Y0082677
X0261811Y0082677
X0261811Y0080709
X0261811Y0084646
X0261811Y0086614
X0261811Y0088583
X0267717Y0088583
X0269685Y0088583
X026811Y0133465
X0261811Y0141732
X0257874Y014252
X0250394Y0144882
X0248031Y014252
X0245669Y0157087
X0242126Y0157087
X0247638Y0159843
X0252362Y0162205
X0258268Y0164173
X0261811Y0170615
X0275197Y0163193
X0276772Y0160236
X0276772Y0153937
X0276772Y0150394
X0288583Y0143307
X0291732Y0144882
X029807Y0142341
X0300394Y0144488
X0303543Y0147638
X030433Y0151181
X0295923Y0140017
X0290551Y0129921
X0288583Y0127165
X029685Y0119685
X0296457Y0113386
X0305118Y0120472
X030748Y0123228
X0305118Y012559
X0312205Y0125984
X0316535Y0126378
X0315354Y013189
X0312205Y0133071
X0320078Y0134645
X0320472Y0139206
X0318897Y0142126
X0325197Y0131102
X0332283Y012874
X032126Y0123622
X0322441Y0119685
X031063Y0120472
X0353543Y0135827
X0362992Y0152756
X0364173Y008937
X0355906Y0080709
X0355906Y0076771
X0355906Y0074803
X0357874Y0074803
X0357874Y0076771
X0353937Y0076771
X0353937Y0074803
X0353937Y0072834
X0353937Y0070866
X0355906Y0070866
X0357874Y0070866
X0357874Y0072834
X0355906Y0072834
X0347244Y0056102
X0343307Y0056693
X0339764Y0056693
X033622Y0056693
X0334941Y0053445
X0338189Y0053445
X0341535Y0053445
X0344783Y0053445
X0344882Y0048917
X0341634Y0048917
X0338287Y0048917
X0335039Y0048917
X0347244Y0051181
X0240157Y0051181
X0237795Y0048917
X0234547Y0048917
X0231201Y0048917
X0227953Y0048917
X0227854Y0053445
X0231102Y0053445
X0234449Y0053445
X0237697Y0053445
X023622Y0056693
X0232677Y0056693
X0229134Y0056693
X0240157Y0056102
X0235039Y0162598
X0209449Y0172047
X0209842Y0175591
X0209842Y017874
X0212205Y0180709
X0248228Y0194291
X0197244Y0179921
X0192913Y0179921
X0191732Y0168504
X0182677Y0172441
X0178347Y0174409
X0173622Y0178346
X0164961Y0166142
X0167323Y0163386
X0169291Y015748
X0171653Y0150394
X0174409Y0146457
X0177559Y0144882
X0180709Y0144882
X0184252Y0144882
X0188189Y0144882
X0191732Y0144882
X0201969Y0144095
X0201575Y0150394
X02Y015315
X0200787Y0159449
X0204331Y0159843
X0162205Y0168504
X0135039Y0166142
X0130315Y0165354
X0115354Y016811
X0116929Y0177165
X0105512Y017126
X0091732Y0169685
X0086614Y0176772
X0083858Y0155512
X0097244Y0153937
X0101969Y0157874
X0112992Y0150393
X0121457Y0146063
X0125787Y0146063
X0125787Y0141732
X0121457Y0141732
X0121457Y0137401
X0125787Y0137401
X0130118Y0137401
X0130118Y0141732
X0130118Y0146063
X0134449Y0146063
X0134449Y0141732
X0134449Y0137401
X0138779Y0137401
X0138779Y0141732
X014311Y0141732
X014311Y0137401
X014311Y0146063
X0138779Y0146063
X0148031Y0149606
X0148031Y0132283
X0142534Y0120252
X0134646Y0119291
X0129134Y0120866
X012126Y0116535
X0118504Y0113386
X0100787Y0110236
X0096063Y0110236
X0090551Y0129921
X009252Y0138583
X009685Y0137008
X0108661Y0135827
X0108267Y0132283
X0112992Y0135039
X0116929Y0133858
X0090945Y0147244
X0071653Y0151181
X0065748Y0165748
X006593Y0169823
X0055118Y0089764
X0122047Y008937
X0113779Y0080709
X0113779Y0076771
X0113779Y0074803
X0115748Y0074803
X0115748Y0076771
X0115748Y0072834
X0113779Y0072834
X0113779Y0070866
X0115748Y0070866
X0111811Y0070866
X0111811Y0072834
X0111811Y0074803
X0111811Y0076771
X0106299Y0056102
X0102362Y0056693
X0098819Y0056693
X0095276Y0056693
X0093996Y0053445
X0097244Y0053445
X0100591Y0053445
X0103839Y0053445
X0103937Y0048917
X0100689Y0048917
X0097342Y0048917
X0094095Y0048917
X0106299Y0051181
X0160925Y0053445
X0164173Y0053445
X016752Y0053445
X0170768Y0053445
X0170866Y0048917
X0167618Y0048917
X0164272Y0048917
X0161024Y0048917
X0162205Y0056693
X0165748Y0056693
X0169291Y0056693
X0173228Y0056102
X0173228Y0051181
X017874Y0070866
X0180709Y0070866
X0180709Y0072834
X017874Y0072834
X017874Y0074803
X0180709Y0074803
X0180709Y0076771
X017874Y0076771
X0182677Y0076771
X0182677Y0074803
X0182677Y0072834
X0182677Y0070866
X0048819Y0070866
X004685Y0070866
X004685Y0072834
X0048819Y0072834
X0048819Y0074803
X004685Y0074803
X004685Y0076771
X0048819Y0076771
X0044882Y0076771
X0044882Y0074803
X0044882Y0072834
X0044882Y0070866
X004685Y0080709
X0049213Y0151181
T02
X001189Y0045355
X0019685Y0042126
X002748Y0045355
X0094567Y0025512
X0102362Y002874
X0110157Y0025512
X0113386Y0017717
X0110157Y0009922
X0102362Y0006693
X0094567Y0009922
X0091338Y0017717
X012874Y0017717
X0131969Y0025512
X0139764Y002874
X0147559Y0025512
X0150787Y0017717
X0147559Y0009922
X0139764Y0006693
X0131969Y0009922
X016937Y0009922
X0166142Y0017717
X016937Y0025512
X0177165Y002874
X018496Y0025512
X0188189Y0017717
X018496Y0009922
X0177165Y0006693
X0255984Y0009922
X0252756Y0017717
X0255984Y0025511
X0263779Y002874
X0271574Y0025511
X0274803Y0017717
X0271574Y0009922
X0263779Y0006693
X030126Y0009922
X0298031Y0017717
X030126Y0025511
X0309055Y002874
X031685Y0025511
X0320079Y0017717
X031685Y0009922
X0309055Y0006693
X0403622Y0009922
X0411417Y0006693
X0419212Y0009922
X0422441Y0017717
X0419212Y0025512
X0411417Y002874
X0403622Y0025512
X0400394Y0017717
X0437795Y0017717
X0441024Y0025512
X0448819Y002874
X0456614Y0025512
X0459842Y0017717
X0456614Y0009922
X0448819Y0006693
X0441024Y0009922
X0478426Y0009922
X0475197Y0017717
X0478426Y0025512
X0486221Y002874
X0494015Y0025512
X0497244Y0017717
X0494015Y0009922
X0486221Y0006693
X0523622Y0167323
X0527559Y017126
X0527559Y0177165
X0525591Y0183071
X0519685Y0183071
X0513779Y0183071
X0507874Y0183071
X0505905Y0177165
X0505905Y017126
X0509842Y0167323
X0516535Y0167323
X0516535Y0159055
X0512992Y0143307
X0501968Y0143307
X0500394Y0125197
X0495669Y0125197
X0477165Y0116142
X0464567Y0111023
X0422047Y0131496
X0413386Y0125591
X0402362Y0125984
X0425984Y0151575
X0494488Y0156693
X0488189Y0170866
X0483465Y0185827
X0337008Y0157874
X0274803Y0119291
X0270866Y0119291
X0250787Y0120079
X0247638Y011063
X0137008Y0110236
X0150787Y0147244
X0116142Y0147244
X0096457Y013189
X002748Y0102283
X0030709Y0094488
X002748Y0086693
X0019685Y0083464
X001189Y0086693
X0008661Y0094488
X001189Y0102283
X0019685Y0105512
X0019685Y0064173
X002748Y0060944
X0030709Y005315
X0008662Y005315
X001189Y0060944
T03
X0219685Y0148819
X0226772Y0182283
X003878Y0125394
T04
X0368032Y0144488
X0378032Y0144488
X0388032Y0144488
X0386142Y0191732
X0376142Y0191732
X0366142Y0191732
X0396142Y0191732
X0406142Y0191732
X0416142Y0191732
X0426142Y0191732
X0436142Y0191732
X0446142Y0191732
X0456142Y0191732
X0466142Y0191732
X0476142Y0191732
X0358032Y0144488
X0348031Y0144488
X0338032Y0144488
X024Y0191339
X023Y0191339
X0220394Y0191339
X0210394Y0191339
X0200394Y0191339
X0190394Y0191339
X0180394Y0191339
X0170394Y0191339
X0160394Y0191339
X0150394Y0191339
X0140394Y0191339
X0130394Y0191339
X0120394Y0191339
X0110394Y0191339
X0100394Y0191339
X0090394Y0191339
X0080394Y0191339
X0070394Y0191339
X0060394Y0191339
X0050394Y0191339
T05
X000671Y0133143
X000671Y0162943
T06
X0109843Y0006299
X0139842Y0006299
X0169843Y0006299
X027126Y0006299
X030126Y0006299
X0418898Y0006299
X0448898Y0006299
X0478898Y0006299
X0007087Y0058976
X0007087Y0088976
T07
X0102362Y0017717
X0139764Y0017717
X0177165Y0017717
X0263779Y0017717
X0309055Y0017717
X0411417Y0017717
X0448819Y0017717
X0486221Y0017717
X0019685Y005315
X0019685Y0094488
T08
X0009843Y0015748
X0049213Y0021654
X0216535Y0021654
X036811Y0021654
X0525591Y0021654
X0543307Y0015748
X0525591Y0114567
X0543307Y0187008
X036811Y0114567
X0216535Y0114567
X0049213Y0114567
X0009843Y0187008
M30
