G04*
G04 #@! TF.GenerationSoftware,Altium Limited,Altium Designer,22.0.2 (36)*
G04*
G04 Layer_Color=16711935*
%FSLAX25Y25*%
%MOIN*%
G70*
G04*
G04 #@! TF.SameCoordinates,06085A55-5152-446A-B416-8F2777D31781*
G04*
G04*
G04 #@! TF.FilePolarity,Negative*
G04*
G01*
G75*
%ADD45R,0.07493X0.04737*%
%ADD46C,0.07874*%
G04:AMPARAMS|DCode=47|XSize=47.37mil|YSize=43.43mil|CornerRadius=8.43mil|HoleSize=0mil|Usage=FLASHONLY|Rotation=180.000|XOffset=0mil|YOffset=0mil|HoleType=Round|Shape=RoundedRectangle|*
%AMROUNDEDRECTD47*
21,1,0.04737,0.02657,0,0,180.0*
21,1,0.03051,0.04343,0,0,180.0*
1,1,0.01686,-0.01526,0.01329*
1,1,0.01686,0.01526,0.01329*
1,1,0.01686,0.01526,-0.01329*
1,1,0.01686,-0.01526,-0.01329*
%
%ADD47ROUNDEDRECTD47*%
G04:AMPARAMS|DCode=48|XSize=47.37mil|YSize=43.43mil|CornerRadius=8.43mil|HoleSize=0mil|Usage=FLASHONLY|Rotation=270.000|XOffset=0mil|YOffset=0mil|HoleType=Round|Shape=RoundedRectangle|*
%AMROUNDEDRECTD48*
21,1,0.04737,0.02657,0,0,270.0*
21,1,0.03051,0.04343,0,0,270.0*
1,1,0.01686,-0.01329,-0.01526*
1,1,0.01686,-0.01329,0.01526*
1,1,0.01686,0.01329,0.01526*
1,1,0.01686,0.01329,-0.01526*
%
%ADD48ROUNDEDRECTD48*%
%ADD57R,0.03556X0.04147*%
%ADD58R,0.04147X0.03556*%
%ADD61O,0.08500X0.06900*%
%ADD62C,0.06706*%
%ADD63C,0.30328*%
%ADD64C,0.12611*%
%ADD65R,0.06706X0.06706*%
%ADD66C,0.10249*%
%ADD109R,0.06299X0.17717*%
%ADD110R,0.05500X0.01800*%
%ADD111O,0.05500X0.01800*%
%ADD112R,0.05721X0.06509*%
%ADD113R,0.09658X0.14580*%
G04:AMPARAMS|DCode=114|XSize=145.8mil|YSize=76.9mil|CornerRadius=12.61mil|HoleSize=0mil|Usage=FLASHONLY|Rotation=180.000|XOffset=0mil|YOffset=0mil|HoleType=Round|Shape=RoundedRectangle|*
%AMROUNDEDRECTD114*
21,1,0.14580,0.05167,0,0,180.0*
21,1,0.12057,0.07690,0,0,180.0*
1,1,0.02522,-0.06029,0.02584*
1,1,0.02522,0.06029,0.02584*
1,1,0.02522,0.06029,-0.02584*
1,1,0.02522,-0.06029,-0.02584*
%
%ADD114ROUNDEDRECTD114*%
G04:AMPARAMS|DCode=115|XSize=51.31mil|YSize=76.9mil|CornerRadius=9.41mil|HoleSize=0mil|Usage=FLASHONLY|Rotation=180.000|XOffset=0mil|YOffset=0mil|HoleType=Round|Shape=RoundedRectangle|*
%AMROUNDEDRECTD115*
21,1,0.05131,0.05807,0,0,180.0*
21,1,0.03248,0.07690,0,0,180.0*
1,1,0.01883,-0.01624,0.02904*
1,1,0.01883,0.01624,0.02904*
1,1,0.01883,0.01624,-0.02904*
1,1,0.01883,-0.01624,-0.02904*
%
%ADD115ROUNDEDRECTD115*%
G04:AMPARAMS|DCode=116|XSize=51.31mil|YSize=76.9mil|CornerRadius=9.41mil|HoleSize=0mil|Usage=FLASHONLY|Rotation=180.000|XOffset=0mil|YOffset=0mil|HoleType=Round|Shape=RoundedRectangle|*
%AMROUNDEDRECTD116*
21,1,0.05131,0.05807,0,0,180.0*
21,1,0.03248,0.07690,0,0,180.0*
1,1,0.01883,-0.01624,0.02904*
1,1,0.01883,0.01624,0.02904*
1,1,0.01883,0.01624,-0.02904*
1,1,0.01883,-0.01624,-0.02904*
%
%ADD116ROUNDEDRECTD116*%
%ADD117R,0.06509X0.05721*%
G04:AMPARAMS|DCode=118|XSize=31.62mil|YSize=47.37mil|CornerRadius=6.95mil|HoleSize=0mil|Usage=FLASHONLY|Rotation=0.000|XOffset=0mil|YOffset=0mil|HoleType=Round|Shape=RoundedRectangle|*
%AMROUNDEDRECTD118*
21,1,0.03162,0.03347,0,0,0.0*
21,1,0.01772,0.04737,0,0,0.0*
1,1,0.01391,0.00886,-0.01673*
1,1,0.01391,-0.00886,-0.01673*
1,1,0.01391,-0.00886,0.01673*
1,1,0.01391,0.00886,0.01673*
%
%ADD118ROUNDEDRECTD118*%
G04:AMPARAMS|DCode=119|XSize=86.74mil|YSize=169.42mil|CornerRadius=13.84mil|HoleSize=0mil|Usage=FLASHONLY|Rotation=180.000|XOffset=0mil|YOffset=0mil|HoleType=Round|Shape=RoundedRectangle|*
%AMROUNDEDRECTD119*
21,1,0.08674,0.14173,0,0,180.0*
21,1,0.05906,0.16942,0,0,180.0*
1,1,0.02769,-0.02953,0.07087*
1,1,0.02769,0.02953,0.07087*
1,1,0.02769,0.02953,-0.07087*
1,1,0.02769,-0.02953,-0.07087*
%
%ADD119ROUNDEDRECTD119*%
%ADD120R,0.14383X0.07887*%
%ADD121R,0.06312X0.04737*%
%ADD122R,0.08595X0.25288*%
%ADD123C,0.05800*%
%ADD124O,0.06509X0.03162*%
G36*
X93307Y55118D02*
X93307Y47638D01*
X95276Y45669D01*
X106299Y45669D01*
Y57087D01*
X98425D01*
X95276Y57086D01*
X93307Y55118D01*
D02*
G37*
G36*
X160236D02*
X160236Y47638D01*
X162205Y45669D01*
X173228Y45669D01*
Y57087D01*
X165354D01*
X162205Y57086D01*
X160236Y55118D01*
D02*
G37*
G36*
X227165Y55118D02*
X227165Y47638D01*
X229134Y45669D01*
X240157Y45669D01*
Y57086D01*
X232283D01*
X229134Y57086D01*
X227165Y55118D01*
D02*
G37*
G36*
X334252Y55118D02*
X334252Y47638D01*
X336221Y45669D01*
X347244Y45669D01*
Y57086D01*
X339370D01*
X336221Y57086D01*
X334252Y55118D01*
D02*
G37*
G36*
X402362Y55118D02*
X402362Y47638D01*
X404331Y45669D01*
X415354Y45669D01*
Y57087D01*
X407480D01*
X404331Y57086D01*
X402362Y55118D01*
D02*
G37*
G36*
X469291D02*
X469291Y47638D01*
X471260Y45669D01*
X482283Y45669D01*
Y57087D01*
X474409D01*
X471260Y57086D01*
X469291Y55118D01*
D02*
G37*
G36*
X536221Y55118D02*
X536220Y47638D01*
X538189Y45669D01*
X549213Y45669D01*
Y57086D01*
X541338D01*
X538189Y57086D01*
X536221Y55118D01*
D02*
G37*
D45*
X255709Y119685D02*
D03*
X263976D02*
D03*
D46*
X539370Y110236D02*
D03*
X30709Y176772D02*
D03*
D47*
X198031Y173425D02*
D03*
Y166732D02*
D03*
X204724Y173425D02*
D03*
Y166732D02*
D03*
X83465Y126575D02*
D03*
Y133268D02*
D03*
X495275Y144291D02*
D03*
Y150984D02*
D03*
X488976Y144291D02*
D03*
Y150984D02*
D03*
X482283Y167913D02*
D03*
Y174606D02*
D03*
X476378D02*
D03*
Y167913D02*
D03*
X470472Y174606D02*
D03*
Y167913D02*
D03*
X542520Y148228D02*
D03*
Y154921D02*
D03*
D48*
X389173Y163779D02*
D03*
X382480D02*
D03*
X389173Y157874D02*
D03*
X382480D02*
D03*
X453346Y177165D02*
D03*
X460039D02*
D03*
X440748Y177253D02*
D03*
X447441D02*
D03*
X428150Y177165D02*
D03*
X434842D02*
D03*
X415945Y177165D02*
D03*
X409252D02*
D03*
X402953Y177165D02*
D03*
X396260D02*
D03*
X389961Y177165D02*
D03*
X383268D02*
D03*
X53346Y151181D02*
D03*
X60039D02*
D03*
X263189Y135827D02*
D03*
X256496D02*
D03*
X250984Y135039D02*
D03*
X244291D02*
D03*
X148622Y141732D02*
D03*
X155315D02*
D03*
X34843Y144094D02*
D03*
X28150D02*
D03*
X34843Y150394D02*
D03*
X28150D02*
D03*
X76969Y151181D02*
D03*
X83661D02*
D03*
D57*
X330118Y124803D02*
D03*
X325000D02*
D03*
X266732Y158661D02*
D03*
X271850D02*
D03*
X478937Y151575D02*
D03*
X473819D02*
D03*
X478937Y137795D02*
D03*
X473819D02*
D03*
X478937Y145669D02*
D03*
X473819D02*
D03*
X471850Y126772D02*
D03*
X476968D02*
D03*
X460827D02*
D03*
X465945D02*
D03*
X453740Y116142D02*
D03*
X458858D02*
D03*
X459252Y157087D02*
D03*
X454134D02*
D03*
X445079Y127559D02*
D03*
X450197D02*
D03*
X429724Y163386D02*
D03*
X434842D02*
D03*
X439567Y127559D02*
D03*
X434449D02*
D03*
X143504Y115354D02*
D03*
X148622D02*
D03*
X129331Y116142D02*
D03*
X134449D02*
D03*
X138779Y151181D02*
D03*
X143898D02*
D03*
X134843Y161811D02*
D03*
X129724D02*
D03*
X121850Y127953D02*
D03*
X126969D02*
D03*
X108071Y163386D02*
D03*
X113189D02*
D03*
X115157Y127953D02*
D03*
X110039D02*
D03*
X102953Y150394D02*
D03*
X108071D02*
D03*
D58*
X260630Y154134D02*
D03*
Y149016D02*
D03*
X287008Y165551D02*
D03*
Y160433D02*
D03*
X292520Y165551D02*
D03*
Y160433D02*
D03*
X298819Y154921D02*
D03*
Y149803D02*
D03*
X287008Y154921D02*
D03*
Y149803D02*
D03*
X281496Y160433D02*
D03*
Y165551D02*
D03*
X298819D02*
D03*
Y160433D02*
D03*
X281496Y149803D02*
D03*
Y154921D02*
D03*
X292520Y149803D02*
D03*
Y154921D02*
D03*
X304331Y155315D02*
D03*
Y160433D02*
D03*
X272047Y153347D02*
D03*
Y148228D02*
D03*
X440158Y140748D02*
D03*
Y145866D02*
D03*
X430709Y157283D02*
D03*
Y152165D02*
D03*
X427165Y129331D02*
D03*
Y134449D02*
D03*
X250394Y154134D02*
D03*
Y149016D02*
D03*
X101969Y129331D02*
D03*
Y134449D02*
D03*
X266535Y153347D02*
D03*
Y148228D02*
D03*
X242126Y105709D02*
D03*
Y110827D02*
D03*
D61*
X6710Y133143D02*
D03*
Y162943D02*
D03*
D62*
X348031Y144488D02*
D03*
X388032Y144488D02*
D03*
X378032D02*
D03*
X368032D02*
D03*
X358032D02*
D03*
X60394Y191339D02*
D03*
X70394D02*
D03*
X80394D02*
D03*
X90394D02*
D03*
X100394D02*
D03*
X110394D02*
D03*
X120394D02*
D03*
X130394D02*
D03*
X140394D02*
D03*
X150394D02*
D03*
X160394D02*
D03*
X170394D02*
D03*
X180394D02*
D03*
X190394D02*
D03*
X200394D02*
D03*
X210394D02*
D03*
X376142Y191732D02*
D03*
X386142D02*
D03*
X396142D02*
D03*
X406142D02*
D03*
X416142D02*
D03*
X426142D02*
D03*
X436142D02*
D03*
X446142D02*
D03*
X456142D02*
D03*
X466142D02*
D03*
X476142D02*
D03*
X220394Y191339D02*
D03*
X230000D02*
D03*
X240000D02*
D03*
D63*
X139764Y17717D02*
D03*
X102362D02*
D03*
X177165D02*
D03*
X486221D02*
D03*
X263779Y17717D02*
D03*
X411417Y17717D02*
D03*
X448819D02*
D03*
X309055Y17717D02*
D03*
X19685Y94488D02*
D03*
X19685Y53150D02*
D03*
D64*
X216535Y114567D02*
D03*
X49213D02*
D03*
X9843Y15748D02*
D03*
X216535Y21654D02*
D03*
X525591Y114567D02*
D03*
X543307Y187008D02*
D03*
X525591Y21654D02*
D03*
X49213D02*
D03*
X9843Y187008D02*
D03*
X368110Y114567D02*
D03*
Y21654D02*
D03*
X543307Y15748D02*
D03*
D65*
X338032Y144488D02*
D03*
X50394Y191339D02*
D03*
X366142Y191732D02*
D03*
D66*
X418898Y6299D02*
D03*
X448898D02*
D03*
X478898D02*
D03*
X109843D02*
D03*
X139842D02*
D03*
X169843D02*
D03*
X7087Y58976D02*
D03*
Y88976D02*
D03*
X301260Y6299D02*
D03*
X271260D02*
D03*
D109*
X548032Y87598D02*
D03*
Y60039D02*
D03*
D110*
X18110Y150984D02*
D03*
Y148425D02*
D03*
Y153543D02*
D03*
Y145866D02*
D03*
D111*
Y143307D02*
D03*
D112*
X547441Y122835D02*
D03*
X540748D02*
D03*
D113*
X520571Y135827D02*
D03*
X539272D02*
D03*
D114*
X516535Y175984D02*
D03*
D115*
X507480Y150000D02*
D03*
X516535D02*
D03*
D116*
X525591D02*
D03*
D117*
X490158Y188386D02*
D03*
Y181693D02*
D03*
X38976Y80118D02*
D03*
Y73425D02*
D03*
X498031Y78149D02*
D03*
Y71457D02*
D03*
X348031Y80118D02*
D03*
Y73425D02*
D03*
X350787Y114764D02*
D03*
Y121457D02*
D03*
X190945Y78149D02*
D03*
Y71457D02*
D03*
X326772Y145866D02*
D03*
Y139173D02*
D03*
D118*
X335630Y113779D02*
D03*
X343110Y124016D02*
D03*
X339370D02*
D03*
X335630D02*
D03*
X343110Y113779D02*
D03*
D119*
X393701Y57677D02*
D03*
Y91929D02*
D03*
X151575Y57677D02*
D03*
Y91929D02*
D03*
X523228Y57677D02*
D03*
Y91929D02*
D03*
X279527Y57677D02*
D03*
Y91929D02*
D03*
X322834Y57677D02*
D03*
Y91929D02*
D03*
X460630Y57677D02*
D03*
Y91929D02*
D03*
X218504Y57677D02*
D03*
Y91929D02*
D03*
X84645Y57677D02*
D03*
Y91929D02*
D03*
D120*
X431102Y95571D02*
D03*
Y73721D02*
D03*
X364173Y95571D02*
D03*
Y73721D02*
D03*
X122047Y95571D02*
D03*
Y73721D02*
D03*
X55118Y95571D02*
D03*
Y73721D02*
D03*
D121*
X327953Y162205D02*
D03*
X312992D02*
D03*
X327953Y153543D02*
D03*
X312992D02*
D03*
D122*
X507717Y125984D02*
D03*
X488346D02*
D03*
D123*
X27953Y135827D02*
D03*
X28346Y159055D02*
D03*
X27953Y125591D02*
D03*
D124*
X58169Y159823D02*
D03*
Y164823D02*
D03*
Y169823D02*
D03*
X79626Y164823D02*
D03*
Y169823D02*
D03*
Y159823D02*
D03*
X58169Y174823D02*
D03*
X79626D02*
D03*
M02*
