G04*
G04 #@! TF.GenerationSoftware,Altium Limited,Altium Designer,22.0.2 (36)*
G04*
G04 Layer_Color=16711935*
%FSLAX25Y25*%
%MOIN*%
G70*
G04*
G04 #@! TF.SameCoordinates,9CD95DC0-35C4-498D-8BF3-3914FB8C140C*
G04*
G04*
G04 #@! TF.FilePolarity,Positive*
G04*
G01*
G75*
%ADD10C,0.00394*%
%ADD136C,0.00197*%
%ADD137C,0.00300*%
%ADD138R,0.01536X0.07087*%
D10*
X259252Y106890D02*
G03*
X259252Y106890I-1969J0D01*
G01*
X293307Y180308D02*
G03*
X293307Y180308I-1969J0D01*
G01*
X482874Y150394D02*
G03*
X482874Y150394I-1969J0D01*
G01*
X158465D02*
G03*
X158465Y150394I-1969J0D01*
G01*
X75197Y173622D02*
G03*
X75197Y173622I-1969J0D01*
G01*
X548327Y120079D02*
Y125591D01*
X539862Y120079D02*
Y125591D01*
X548327D01*
X539862Y120079D02*
X548327D01*
X492323Y127559D02*
X503740D01*
X492323Y134646D02*
X503740D01*
Y127559D02*
Y134646D01*
X492323Y127559D02*
Y134646D01*
X517520Y128937D02*
X542323D01*
X517520D02*
Y142717D01*
X542323D01*
Y128937D02*
Y142717D01*
X487401Y189272D02*
X492913D01*
Y180807D02*
Y189272D01*
X487401Y180807D02*
Y189272D01*
Y180807D02*
X492913D01*
X324213Y126575D02*
X330906D01*
X324213Y123031D02*
X330906D01*
Y126575D01*
X324213Y123031D02*
Y126575D01*
X41732Y72539D02*
Y81004D01*
X36220Y72539D02*
Y81004D01*
X41732D01*
X36220Y72539D02*
X41732D01*
X269882Y94291D02*
Y110433D01*
X253740D02*
X269882D01*
X253740Y94291D02*
X269882D01*
X253740D02*
Y110433D01*
X291339Y129641D02*
X319178Y157480D01*
X263500D02*
X291339Y129641D01*
X291339Y185319D02*
X319178Y157480D01*
X263500D02*
X291339Y185319D01*
X500787Y70571D02*
Y79036D01*
X495275Y70571D02*
Y79036D01*
X500787D01*
X495275Y70571D02*
X500787D01*
X437894Y71555D02*
Y97736D01*
X424311Y71555D02*
Y97736D01*
X437894D01*
X424311Y71555D02*
X437894D01*
X370965D02*
Y97736D01*
X357382Y71555D02*
Y97736D01*
X370965D01*
X357382Y71555D02*
X370965D01*
X350787Y72539D02*
Y81004D01*
X345276Y72539D02*
Y81004D01*
X350787D01*
X345276Y72539D02*
X350787D01*
X254134Y116142D02*
X265551D01*
X254134Y123228D02*
X265551D01*
X254134Y116142D02*
Y123228D01*
X265551Y116142D02*
Y123228D01*
X310433Y151378D02*
Y164370D01*
X330512Y151378D02*
Y164370D01*
X310433D02*
X330512D01*
X310433Y151378D02*
X330512D01*
X348031Y113878D02*
X353543D01*
Y122343D01*
X348031D02*
X353543D01*
X348031Y113878D02*
Y122343D01*
X128839Y71555D02*
Y97736D01*
X115256Y71555D02*
Y97736D01*
X128839D01*
X115256Y71555D02*
X128839D01*
X193701Y70571D02*
Y79036D01*
X188189Y70571D02*
Y79036D01*
X193701D01*
X188189Y70571D02*
X193701D01*
X510236Y113780D02*
Y138189D01*
X485827Y113780D02*
X510236D01*
X485827D02*
Y138189D01*
X510236D01*
X61909Y71555D02*
Y97736D01*
X48327Y71555D02*
Y97736D01*
X61909D01*
X48327Y71555D02*
X61909D01*
X428937Y129527D02*
Y153937D01*
X484449Y129527D02*
Y153937D01*
X428937Y129527D02*
X484449D01*
X428937Y153937D02*
X484449D01*
X104527Y129527D02*
Y153937D01*
X160039Y129527D02*
Y153937D01*
X104527Y129527D02*
X160039D01*
X104527Y153937D02*
X160039D01*
X258858Y154921D02*
X262402D01*
X258858Y148228D02*
X262402D01*
X258858D02*
Y154921D01*
X262402Y148228D02*
Y154921D01*
X285236Y166339D02*
X288779D01*
X285236Y159646D02*
X288779D01*
X285236D02*
Y166339D01*
X288779Y159646D02*
Y166339D01*
X290748D02*
X294291D01*
X290748Y159646D02*
X294291D01*
X290748D02*
Y166339D01*
X294291Y159646D02*
Y166339D01*
X297047Y155709D02*
X300590D01*
X297047Y149016D02*
X300590D01*
X297047D02*
Y155709D01*
X300590Y149016D02*
Y155709D01*
X285236D02*
X288779D01*
X285236Y149016D02*
X288779D01*
X285236D02*
Y155709D01*
X288779Y149016D02*
Y155709D01*
X279724Y159646D02*
X283268D01*
X279724Y166339D02*
X283268D01*
Y159646D02*
Y166339D01*
X279724Y159646D02*
Y166339D01*
X297047D02*
X300590D01*
X297047Y159646D02*
X300590D01*
X297047D02*
Y166339D01*
X300590Y159646D02*
Y166339D01*
X279724Y149016D02*
X283268D01*
X279724Y155709D02*
X283268D01*
Y149016D02*
Y155709D01*
X279724Y149016D02*
Y155709D01*
X290748Y149016D02*
X294291D01*
X290748Y155709D02*
X294291D01*
Y149016D02*
Y155709D01*
X290748Y149016D02*
Y155709D01*
X302559Y154528D02*
X306102D01*
X302559Y161221D02*
X306102D01*
Y154528D02*
Y161221D01*
X302559Y154528D02*
Y161221D01*
X265945Y156890D02*
Y160433D01*
X272638Y156890D02*
Y160433D01*
X265945Y156890D02*
X272638D01*
X265945Y160433D02*
X272638D01*
X270276Y154134D02*
X273819D01*
X270276Y147441D02*
X273819D01*
X270276D02*
Y154134D01*
X273819Y147441D02*
Y154134D01*
X479724Y149803D02*
Y153346D01*
X473031Y149803D02*
Y153346D01*
X479724D01*
X473031Y149803D02*
X479724D01*
Y136023D02*
Y139567D01*
X473031Y136023D02*
Y139567D01*
X479724D01*
X473031Y136023D02*
X479724D01*
Y143897D02*
Y147441D01*
X473031Y143897D02*
Y147441D01*
X479724D01*
X473031Y143897D02*
X479724D01*
X471063Y125000D02*
Y128543D01*
X477756Y125000D02*
Y128543D01*
X471063Y125000D02*
X477756D01*
X471063Y128543D02*
X477756D01*
X460039Y125000D02*
Y128543D01*
X466732Y125000D02*
Y128543D01*
X460039Y125000D02*
X466732D01*
X460039Y128543D02*
X466732D01*
X452953Y114370D02*
Y117913D01*
X459646Y114370D02*
Y117913D01*
X452953Y114370D02*
X459646D01*
X452953Y117913D02*
X459646D01*
X438386Y139961D02*
X441929D01*
X438386Y146653D02*
X441929D01*
Y139961D02*
Y146653D01*
X438386Y139961D02*
Y146653D01*
X460039Y155315D02*
Y158858D01*
X453346Y155315D02*
Y158858D01*
X460039D01*
X453346Y155315D02*
X460039D01*
X444291Y125787D02*
Y129331D01*
X450984Y125787D02*
Y129331D01*
X444291Y125787D02*
X450984D01*
X444291Y129331D02*
X450984D01*
X428937Y161614D02*
Y165157D01*
X435630Y161614D02*
Y165157D01*
X428937Y161614D02*
X435630D01*
X428937Y165157D02*
X435630D01*
X440354Y125787D02*
Y129331D01*
X433661Y125787D02*
Y129331D01*
X440354D01*
X433661Y125787D02*
X440354D01*
X428937Y158071D02*
X432480D01*
X428937Y151378D02*
X432480D01*
X428937D02*
Y158071D01*
X432480Y151378D02*
Y158071D01*
X266339Y180512D02*
Y184055D01*
X259646Y180512D02*
Y184055D01*
Y180512D02*
X266339D01*
X259646Y184055D02*
X266339D01*
Y175394D02*
Y178937D01*
X259646Y175394D02*
Y178937D01*
Y175394D02*
X266339D01*
X259646Y178937D02*
X266339D01*
X425394Y128543D02*
X428937D01*
X425394Y135236D02*
X428937D01*
Y128543D02*
Y135236D01*
X425394Y128543D02*
Y135236D01*
X421457Y120669D02*
X425000D01*
X421457Y127362D02*
X425000D01*
X421457Y120669D02*
Y127362D01*
X425000Y120669D02*
Y127362D01*
X248622Y154921D02*
X252165D01*
X248622Y148228D02*
X252165D01*
X248622D02*
Y154921D01*
X252165Y148228D02*
Y154921D01*
X142717Y113583D02*
Y117126D01*
X149409Y113583D02*
Y117126D01*
X142717Y113583D02*
X149409D01*
X142717Y117126D02*
X149409D01*
X128543Y114370D02*
Y117913D01*
X135236Y114370D02*
Y117913D01*
X128543Y114370D02*
X135236D01*
X128543Y117913D02*
X135236D01*
X137992Y149409D02*
Y152953D01*
X144685Y149409D02*
Y152953D01*
X137992Y149409D02*
X144685D01*
X137992Y152953D02*
X144685D01*
X135630Y160039D02*
Y163583D01*
X128937Y160039D02*
Y163583D01*
X135630D01*
X128937Y160039D02*
X135630D01*
X121063Y126181D02*
Y129724D01*
X127756Y126181D02*
Y129724D01*
X121063Y126181D02*
X127756D01*
X121063Y129724D02*
X127756D01*
X107283Y161614D02*
Y165157D01*
X113976Y161614D02*
Y165157D01*
X107283Y161614D02*
X113976D01*
X107283Y165157D02*
X113976D01*
X115945Y126181D02*
Y129724D01*
X109252Y126181D02*
Y129724D01*
X115945D01*
X109252Y126181D02*
X115945D01*
X102165Y148622D02*
Y152165D01*
X108858Y148622D02*
Y152165D01*
X102165Y148622D02*
X108858D01*
X102165Y152165D02*
X108858D01*
X253346Y169882D02*
X256890D01*
X253346Y176575D02*
X256890D01*
X253346Y169882D02*
Y176575D01*
X256890Y169882D02*
Y176575D01*
X248228Y169882D02*
X251772D01*
X248228Y176575D02*
X251772D01*
X248228Y169882D02*
Y176575D01*
X251772Y169882D02*
Y176575D01*
X100197Y128543D02*
X103740D01*
X100197Y135236D02*
X103740D01*
Y128543D02*
Y135236D01*
X100197Y128543D02*
Y135236D01*
X97047Y120669D02*
X100591D01*
X97047Y127362D02*
X100591D01*
X97047Y120669D02*
Y127362D01*
X100591Y120669D02*
Y127362D01*
X264764Y154134D02*
X268307D01*
X264764Y147441D02*
X268307D01*
X264764D02*
Y154134D01*
X268307Y147441D02*
Y154134D01*
X268701Y112008D02*
Y115551D01*
X275394Y112008D02*
Y115551D01*
X268701D02*
X275394D01*
X268701Y112008D02*
X275394D01*
X240354Y104921D02*
X243898D01*
X240354Y111614D02*
X243898D01*
Y104921D02*
Y111614D01*
X240354Y104921D02*
Y111614D01*
X61024Y157480D02*
X76772D01*
X61024D02*
Y177165D01*
X76772Y157480D02*
Y177165D01*
X61024D02*
X76772D01*
X324016Y146752D02*
X329528D01*
X324016Y138287D02*
Y146752D01*
Y138287D02*
X329528D01*
Y146752D01*
D136*
X332209Y193307D02*
G03*
X332209Y193307I-1500J0D01*
G01*
X336369Y120158D02*
G03*
X336369Y120158I-818J0D01*
G01*
X338114Y193307D02*
G03*
X338114Y193307I-1500J0D01*
G01*
X320398D02*
G03*
X320398Y193307I-1500J0D01*
G01*
X344020D02*
G03*
X344020Y193307I-1500J0D01*
G01*
X349925D02*
G03*
X349925Y193307I-1500J0D01*
G01*
X373603Y68501D02*
G03*
X387398Y54705I20098J6302D01*
G01*
X400003D02*
G03*
X413799Y68501I-6302J20098D01*
G01*
X375984Y95472D02*
G03*
X373031Y92520I0J-2953D01*
G01*
X387398Y94901D02*
G03*
X373603Y81105I6302J-20098D01*
G01*
X414370Y92520D02*
G03*
X411417Y95472I-2953J0D01*
G01*
X413799Y81105D02*
G03*
X400003Y94901I-20098J-6302D01*
G01*
X413180Y81693D02*
G03*
X374222Y81693I-19479J-6890D01*
G01*
X375261D02*
G03*
X412141Y81693I18440J-6890D01*
G01*
X374214D02*
G03*
X413188Y81693I19487J-6890D01*
G01*
X131477Y68501D02*
G03*
X145273Y54705I20098J6302D01*
G01*
X157877D02*
G03*
X171673Y68501I-6302J20098D01*
G01*
X133858Y95472D02*
G03*
X130905Y92520I0J-2953D01*
G01*
X145273Y94901D02*
G03*
X131477Y81105I6302J-20098D01*
G01*
X172244Y92520D02*
G03*
X169291Y95472I-2953J0D01*
G01*
X171673Y81105D02*
G03*
X157877Y94901I-20098J-6302D01*
G01*
X171054Y81693D02*
G03*
X132096Y81693I-19479J-6890D01*
G01*
X133135D02*
G03*
X170015Y81693I18440J-6890D01*
G01*
X132088D02*
G03*
X171062Y81693I19487J-6890D01*
G01*
X503130Y68501D02*
G03*
X516926Y54705I20098J6302D01*
G01*
X529531D02*
G03*
X543326Y68501I-6302J20098D01*
G01*
X505512Y95473D02*
G03*
X502559Y92520I0J-2953D01*
G01*
X516926Y94901D02*
G03*
X503130Y81105I6302J-20098D01*
G01*
X543898Y92520D02*
G03*
X540945Y95473I-2953J0D01*
G01*
X543326Y81105D02*
G03*
X529531Y94901I-20098J-6302D01*
G01*
X542707Y81693D02*
G03*
X503750Y81693I-19479J-6890D01*
G01*
X504788D02*
G03*
X541668Y81693I18440J-6890D01*
G01*
X503741D02*
G03*
X542716Y81693I19487J-6890D01*
G01*
X259429Y68501D02*
G03*
X273225Y54705I20098J6302D01*
G01*
X285830D02*
G03*
X299625Y68501I-6302J20098D01*
G01*
X261811Y95472D02*
G03*
X258858Y92520I0J-2953D01*
G01*
X273225Y94901D02*
G03*
X259429Y81105I6302J-20098D01*
G01*
X300197Y92520D02*
G03*
X297244Y95472I-2953J0D01*
G01*
X299625Y81105D02*
G03*
X285830Y94901I-20098J-6302D01*
G01*
X299006Y81693D02*
G03*
X260049Y81693I-19479J-6890D01*
G01*
X261087D02*
G03*
X297968Y81693I18440J-6890D01*
G01*
X260040D02*
G03*
X299015Y81693I19487J-6890D01*
G01*
X302736Y68501D02*
G03*
X316532Y54705I20098J6302D01*
G01*
X329137D02*
G03*
X342933Y68501I-6302J20098D01*
G01*
X305118Y95472D02*
G03*
X302165Y92520I0J-2953D01*
G01*
X316532Y94901D02*
G03*
X302736Y81105I6302J-20098D01*
G01*
X343504Y92520D02*
G03*
X340551Y95472I-2953J0D01*
G01*
X342933Y81105D02*
G03*
X329137Y94901I-20098J-6302D01*
G01*
X342313Y81693D02*
G03*
X303356Y81693I-19479J-6890D01*
G01*
X304395D02*
G03*
X341274Y81693I18440J-6890D01*
G01*
X303347D02*
G03*
X342322Y81693I19487J-6890D01*
G01*
X440532Y68501D02*
G03*
X454328Y54705I20098J6302D01*
G01*
X466932D02*
G03*
X480728Y68501I-6302J20098D01*
G01*
X442913Y95472D02*
G03*
X439961Y92520I0J-2953D01*
G01*
X454328Y94901D02*
G03*
X440532Y81105I6302J-20098D01*
G01*
X481299Y92520D02*
G03*
X478346Y95472I-2953J0D01*
G01*
X480728Y81105D02*
G03*
X466932Y94901I-20098J-6302D01*
G01*
X480109Y81693D02*
G03*
X441151Y81693I-19479J-6890D01*
G01*
X442190D02*
G03*
X479070Y81693I18440J-6890D01*
G01*
X441143D02*
G03*
X480117Y81693I19487J-6890D01*
G01*
X198406Y68501D02*
G03*
X212202Y54705I20098J6302D01*
G01*
X224806D02*
G03*
X238602Y68501I-6302J20098D01*
G01*
X200787Y95472D02*
G03*
X197835Y92520I0J-2953D01*
G01*
X212202Y94901D02*
G03*
X198406Y81105I6302J-20098D01*
G01*
X239173Y92520D02*
G03*
X236220Y95472I-2953J0D01*
G01*
X238602Y81105D02*
G03*
X224806Y94901I-20098J-6302D01*
G01*
X237983Y81693D02*
G03*
X199025Y81693I-19479J-6890D01*
G01*
X200064D02*
G03*
X236944Y81693I18440J-6890D01*
G01*
X199017D02*
G03*
X237991Y81693I19487J-6890D01*
G01*
X64548Y68501D02*
G03*
X78343Y54705I20098J6302D01*
G01*
X90948D02*
G03*
X104744Y68501I-6302J20098D01*
G01*
X66929Y95472D02*
G03*
X63976Y92520I0J-2953D01*
G01*
X78343Y94901D02*
G03*
X64548Y81105I6302J-20098D01*
G01*
X105315Y92520D02*
G03*
X102362Y95472I-2953J0D01*
G01*
X104744Y81105D02*
G03*
X90948Y94901I-20098J-6302D01*
G01*
X104124Y81693D02*
G03*
X65167Y81693I-19479J-6890D01*
G01*
X66206D02*
G03*
X103086Y81693I18440J-6890D01*
G01*
X65158D02*
G03*
X104133Y81693I19487J-6890D01*
G01*
X326303Y193307D02*
G03*
X326303Y193307I-1500J0D01*
G01*
X514882Y148622D02*
X518189D01*
X505827D02*
X509134D01*
X510433Y177362D02*
X522638D01*
X523937Y148622D02*
X527244D01*
X514882Y150448D02*
X518189D01*
X505827Y150448D02*
X509134D01*
X510433Y175536D02*
X522638D01*
X523937Y150448D02*
X527244D01*
X514882Y150936D02*
X518189D01*
X510433Y175048D02*
X522638D01*
X505827Y150936D02*
X509134D01*
X523937D02*
X527244D01*
X510433Y172858D02*
X522638D01*
X505827Y148622D02*
Y155792D01*
X509134Y148622D02*
Y155792D01*
X505827Y153127D02*
X509134D01*
X505827Y154519D02*
X509134D01*
X518189Y148622D02*
Y155792D01*
X514882Y153127D02*
X518189D01*
X514882Y148622D02*
Y155792D01*
Y154519D02*
X518189D01*
X522638Y170193D02*
Y177362D01*
X510433Y170193D02*
Y177362D01*
Y171466D02*
X522638D01*
X527244Y148622D02*
Y155792D01*
X523937Y153127D02*
X527244D01*
X523937Y148622D02*
Y155792D01*
Y154519D02*
X527244D01*
X518189Y155709D02*
X523937D01*
X514882Y155792D02*
X518189D01*
X509134Y155709D02*
X514882D01*
X505827Y155792D02*
X509134D01*
X503346Y155709D02*
X505827D01*
X527244D02*
X529724D01*
X523937Y155792D02*
X527244D01*
X529254Y156179D02*
X529724Y155709D01*
Y170276D01*
X503346Y155709D02*
X503817Y156179D01*
X503346Y155709D02*
Y170276D01*
X510433Y170193D02*
X522638D01*
Y170276D02*
X529724D01*
X529254Y169805D02*
X529724Y170276D01*
X503346D02*
X503817Y169805D01*
X503346Y170276D02*
X510433D01*
X503817Y156179D02*
Y169805D01*
X529254D01*
Y156179D02*
Y169805D01*
X503817Y156179D02*
X529254D01*
X333980Y121729D02*
X344761D01*
X333980Y116066D02*
Y121729D01*
Y116066D02*
X344761D01*
Y121729D01*
X333661Y115748D02*
Y122047D01*
Y115748D02*
X333980Y116066D01*
X333661Y122047D02*
X333980Y121729D01*
X333661Y115748D02*
X345079D01*
X344761Y116066D02*
X345079Y115748D01*
Y122047D01*
X344761Y121729D02*
X345079Y122047D01*
X333661D02*
X345079D01*
X342323Y113386D02*
Y115748D01*
Y115576D02*
X343898D01*
Y113386D02*
Y115748D01*
X342323Y114592D02*
X343898D01*
Y122047D02*
Y124409D01*
X342323Y122219D02*
X343898D01*
X342323Y122047D02*
Y124409D01*
Y123203D02*
X343898D01*
X340158Y124409D02*
X340158Y122047D01*
X338583Y122219D02*
X340158D01*
X338583Y122047D02*
X338583Y124409D01*
X336417Y122047D02*
Y124409D01*
X334842Y122219D02*
X336417D01*
X334842Y122047D02*
Y124409D01*
X338583Y123203D02*
X340158D01*
X334842Y113386D02*
Y115748D01*
Y115576D02*
X336417D01*
Y113386D02*
Y115748D01*
X334842Y114592D02*
X336417D01*
X334842Y123203D02*
X336417D01*
X342323Y123228D02*
X343898D01*
X342323Y114567D02*
X343898D01*
X338583Y123228D02*
X340158D01*
X334842D02*
X336417D01*
X334842Y114567D02*
X336417D01*
X342323Y123588D02*
X343898D01*
X342323Y114208D02*
X343898D01*
X338583Y123588D02*
X340158D01*
X334842Y114208D02*
X336417D01*
X334842Y123588D02*
X336417D01*
X342323Y124409D02*
X343898D01*
X338583D02*
X340158D01*
X342323Y113386D02*
X343898D01*
X334842Y124409D02*
X336417D01*
X334842Y113386D02*
X336417D01*
X382382Y165650D02*
X383957D01*
X382382Y161909D02*
Y165650D01*
X383957Y161909D02*
Y165650D01*
X382382Y161909D02*
X383957D01*
X387697Y165650D02*
X389272D01*
X387697Y161909D02*
Y165650D01*
Y161909D02*
X389272D01*
Y165650D01*
X383957Y161913D02*
X387697D01*
X383957Y161915D02*
X387697Y161913D01*
X383957Y165646D02*
X387697Y165644D01*
X383957Y165646D02*
X387697Y165644D01*
X382382Y159744D02*
X383957D01*
X382382Y156004D02*
Y159744D01*
X383957Y156004D02*
Y159744D01*
X382382Y156004D02*
X383957D01*
X387697Y159744D02*
X389272D01*
X387697Y156004D02*
Y159744D01*
Y156004D02*
X389272D01*
Y159744D01*
X383957Y156008D02*
X387697D01*
X383957Y156010D02*
X387697Y156008D01*
X383957Y159740D02*
X387697Y159738D01*
X383957Y159740D02*
X387697Y159738D01*
X196161Y166634D02*
Y168209D01*
Y166634D02*
X199902D01*
X196161Y168209D02*
X199902D01*
Y166634D02*
Y168209D01*
X196161Y171949D02*
Y173524D01*
Y171949D02*
X199902D01*
Y173524D01*
X196161D02*
X199902D01*
X199898Y168209D02*
Y171949D01*
X199896Y168209D02*
X199898Y171949D01*
X196165Y168209D02*
X196167Y171949D01*
X196165Y168209D02*
X196167Y171949D01*
X202854Y166634D02*
Y168209D01*
Y166634D02*
X206594D01*
X202854Y168209D02*
X206594D01*
Y166634D02*
Y168209D01*
X202854Y171949D02*
Y173524D01*
Y171949D02*
X206594D01*
Y173524D01*
X202854D02*
X206594D01*
X206591Y168209D02*
Y171949D01*
X206589Y168209D02*
X206591Y171949D01*
X202858Y168209D02*
X202860Y171949D01*
X202858Y168209D02*
X202860Y171949D01*
X327264Y159744D02*
Y161319D01*
X331004D01*
X327264Y159744D02*
X331004D01*
Y161319D01*
X327264Y154429D02*
Y156004D01*
X331004D01*
Y154429D02*
Y156004D01*
X327264Y154429D02*
X331004D01*
X331000Y156004D02*
Y159744D01*
X330998D02*
X331000Y156004D01*
X327268Y159744D02*
X327270Y156004D01*
X327268Y159744D02*
X327270Y156004D01*
X333169Y131201D02*
X334744D01*
X333169D02*
Y134941D01*
X334744Y131201D02*
Y134941D01*
X333169D02*
X334744D01*
X338484Y131201D02*
X340059D01*
X338484D02*
Y134941D01*
X340059D01*
Y131201D02*
Y134941D01*
X334744Y134937D02*
X338484D01*
X334744Y134935D02*
X338484Y134937D01*
X334744Y131205D02*
X338484Y131207D01*
X334744Y131205D02*
X338484Y131207D01*
X85335Y131791D02*
Y133366D01*
X81595D02*
X85335D01*
X81595Y131791D02*
X85335D01*
X81595D02*
Y133366D01*
X85335Y126476D02*
Y128051D01*
X81595D02*
X85335D01*
X81595Y126476D02*
Y128051D01*
Y126476D02*
X85335D01*
X81599Y128051D02*
Y131791D01*
Y128051D02*
X81600Y131791D01*
X85329Y128051D02*
X85331Y131791D01*
X85329Y128051D02*
X85331Y131791D01*
X220374Y89665D02*
X221949D01*
Y85925D02*
Y89665D01*
X220374Y85925D02*
Y89665D01*
Y85925D02*
X221949D01*
X215059Y89665D02*
X216634D01*
Y85925D02*
Y89665D01*
X215059Y85925D02*
X216634D01*
X215059D02*
Y89665D01*
X216634Y85929D02*
X220374D01*
X216634D02*
X220374Y85931D01*
X216634Y89659D02*
X220374Y89661D01*
X216634Y89659D02*
X220374Y89661D01*
X241240Y100295D02*
X242815D01*
Y96555D02*
Y100295D01*
X241240Y96555D02*
Y100295D01*
Y96555D02*
X242815D01*
X235925Y100295D02*
X237500D01*
Y96555D02*
Y100295D01*
X235925Y96555D02*
X237500D01*
X235925D02*
Y100295D01*
X237500Y96559D02*
X241240D01*
X237500D02*
X241240Y96561D01*
X237500Y100289D02*
X241240Y100291D01*
X237500Y100289D02*
X241240Y100291D01*
X289272Y99508D02*
X290846D01*
Y95768D02*
Y99508D01*
X289272Y95768D02*
Y99508D01*
Y95768D02*
X290846D01*
X283957Y99508D02*
X285531D01*
Y95768D02*
Y99508D01*
X283957Y95768D02*
X285531D01*
X283957D02*
Y99508D01*
X285531Y95772D02*
X289272D01*
X285531D02*
X289272Y95774D01*
X285531Y99502D02*
X289272Y99504D01*
X285531Y99502D02*
X289272Y99504D01*
X308957Y110138D02*
X310531D01*
Y106398D02*
Y110138D01*
X308957Y106398D02*
Y110138D01*
Y106398D02*
X310531D01*
X303642Y110138D02*
X305216D01*
Y106398D02*
Y110138D01*
X303642Y106398D02*
X305216D01*
X303642D02*
Y110138D01*
X305216Y106402D02*
X308957D01*
X305216D02*
X308957Y106404D01*
X305216Y110132D02*
X308957Y110134D01*
X305216Y110132D02*
X308957Y110134D01*
X49114Y92421D02*
Y93996D01*
X45374D02*
X49114D01*
X49110Y88681D02*
Y92421D01*
X49108D02*
X49110Y88681D01*
X49114Y87106D02*
Y88681D01*
X45378Y92421D02*
X45380Y88681D01*
X45378Y92421D02*
X45380Y88681D01*
X45374Y92421D02*
X49114D01*
X45374D02*
Y93996D01*
Y88681D02*
X49114D01*
X45374Y87106D02*
X49114D01*
X45374D02*
Y88681D01*
X64862Y87106D02*
Y88681D01*
X61122Y87106D02*
X64862D01*
X61122Y88681D02*
X64862D01*
X61122Y87106D02*
Y88681D01*
X64862Y92421D02*
Y93996D01*
X61122Y92421D02*
X64862D01*
X61122D02*
Y93996D01*
X64862D01*
X61126Y88681D02*
Y92421D01*
X61128Y88681D01*
X64856Y92421D02*
X64858Y88681D01*
X64856Y92421D02*
X64858Y88681D01*
X90453Y87106D02*
Y88681D01*
X86712Y87106D02*
X90453D01*
X86712Y88681D02*
X90453D01*
X86712Y87106D02*
Y88681D01*
X90453Y92421D02*
Y93996D01*
X86712Y92421D02*
X90453D01*
X86712D02*
Y93996D01*
X90453D01*
X86716Y88681D02*
Y92421D01*
X86718Y88681D01*
X90447Y92421D02*
X90449Y88681D01*
X90447Y92421D02*
X90449Y88681D01*
X116043Y92421D02*
Y93996D01*
X112303D02*
X116043D01*
X116039Y88681D02*
Y92421D01*
X116037D02*
X116039Y88681D01*
X116043Y87106D02*
Y88681D01*
X112307Y92421D02*
X112309Y88681D01*
X112307Y92421D02*
X112309Y88681D01*
X112303Y92421D02*
X116043D01*
X112303D02*
Y93996D01*
Y88681D02*
X116043D01*
X112303Y87106D02*
X116043D01*
X112303D02*
Y88681D01*
X131791Y87106D02*
Y88681D01*
X128051Y87106D02*
X131791D01*
X128051Y88681D02*
X131791D01*
X128051Y87106D02*
Y88681D01*
X131791Y92421D02*
Y93996D01*
X128051Y92421D02*
X131791D01*
X128051D02*
Y93996D01*
X131791D01*
X128055Y88681D02*
Y92421D01*
X128057Y88681D01*
X131785Y92421D02*
X131787Y88681D01*
X131785Y92421D02*
X131787Y88681D01*
X157382Y87106D02*
Y88681D01*
X153641Y87106D02*
X157382D01*
X153641Y88681D02*
X157382D01*
X153641Y87106D02*
Y88681D01*
X157382Y92421D02*
Y93996D01*
X153641Y92421D02*
X157382D01*
X153641D02*
Y93996D01*
X157382D01*
X153646Y88681D02*
Y92421D01*
X153647Y88681D01*
X157376Y92421D02*
X157378Y88681D01*
X157376Y92421D02*
X157378Y88681D01*
X194783Y87106D02*
Y88681D01*
X191043Y87106D02*
X194783D01*
X191043Y88681D02*
X194783D01*
X191043Y87106D02*
Y88681D01*
X194783Y92421D02*
Y93996D01*
X191043Y92421D02*
X194783D01*
X191043D02*
Y93996D01*
X194783D01*
X191047Y88681D02*
Y92421D01*
X191049Y88681D01*
X194778Y92421D02*
X194779Y88681D01*
X194778Y92421D02*
X194779Y88681D01*
X405610Y131791D02*
Y133366D01*
X409350D01*
X405610Y131791D02*
X409350D01*
Y133366D01*
X405610Y126476D02*
Y128051D01*
X409350D01*
Y126476D02*
Y128051D01*
X405610Y126476D02*
X409350D01*
X409346Y128051D02*
Y131791D01*
X409344D02*
X409346Y128051D01*
X405614Y131791D02*
X405616Y128051D01*
X405614Y131791D02*
X405616Y128051D01*
X358169Y92421D02*
Y93996D01*
X354429D02*
X358169D01*
X358165Y88681D02*
Y92421D01*
X358163D02*
X358165Y88681D01*
X358169Y87106D02*
Y88681D01*
X354433Y92421D02*
X354435Y88681D01*
X354433Y92421D02*
X354435Y88681D01*
X354429Y92421D02*
X358169D01*
X354429D02*
Y93996D01*
Y88681D02*
X358169D01*
X354429Y87106D02*
X358169D01*
X354429D02*
Y88681D01*
X370177Y92421D02*
Y93996D01*
X373917D01*
X370177Y92421D02*
X373917D01*
Y93996D01*
X370177Y87106D02*
Y88681D01*
X373917D01*
Y87106D02*
Y88681D01*
X370177Y87106D02*
X373917D01*
X373913Y88681D02*
Y92421D01*
X373911D02*
X373913Y88681D01*
X370181Y92421D02*
X370183Y88681D01*
X370181Y92421D02*
X370183Y88681D01*
X500098Y92421D02*
Y93996D01*
X503838D01*
X500098Y92421D02*
X503838D01*
Y93996D01*
X500098Y87106D02*
Y88681D01*
X503838D01*
Y87106D02*
Y88681D01*
X500098Y87106D02*
X503838D01*
X503834Y88681D02*
Y92421D01*
X503832D02*
X503834Y88681D01*
X500102Y92421D02*
X500104Y88681D01*
X500102Y92421D02*
X500104Y88681D01*
X462697Y92421D02*
Y93996D01*
X466437D01*
X462697Y92421D02*
X466437D01*
Y93996D01*
X462697Y87106D02*
Y88681D01*
X466437D01*
Y87106D02*
Y88681D01*
X462697Y87106D02*
X466437D01*
X466433Y88681D02*
Y92421D01*
X466431D02*
X466433Y88681D01*
X462701Y92421D02*
X462703Y88681D01*
X462701Y92421D02*
X462703Y88681D01*
X529626Y92421D02*
Y93996D01*
X533366D01*
X529626Y92421D02*
X533366D01*
Y93996D01*
X529626Y87106D02*
Y88681D01*
X533366D01*
Y87106D02*
Y88681D01*
X529626Y87106D02*
X533366D01*
X533362Y88681D02*
Y92421D01*
X533360D02*
X533362Y88681D01*
X529630Y92421D02*
X529632Y88681D01*
X529630Y92421D02*
X529632Y88681D01*
X437106Y92421D02*
Y93996D01*
X440846D01*
X437106Y92421D02*
X440846D01*
Y93996D01*
X437106Y87106D02*
Y88681D01*
X440846D01*
Y87106D02*
Y88681D01*
X437106Y87106D02*
X440846D01*
X440842Y88681D02*
Y92421D01*
X440840D02*
X440842Y88681D01*
X437110Y92421D02*
X437112Y88681D01*
X437110Y92421D02*
X437112Y88681D01*
X395768Y92421D02*
Y93996D01*
X399508D01*
X395768Y92421D02*
X399508D01*
Y93996D01*
X395768Y87106D02*
Y88681D01*
X399508D01*
Y87106D02*
Y88681D01*
X395768Y87106D02*
X399508D01*
X399504Y88681D02*
Y92421D01*
X399502D02*
X399504Y88681D01*
X395772Y92421D02*
X395774Y88681D01*
X395772Y92421D02*
X395774Y88681D01*
X425099Y92421D02*
Y93996D01*
X421358D02*
X425099D01*
X425095Y88681D02*
Y92421D01*
X425093D02*
X425095Y88681D01*
X425099Y87106D02*
Y88681D01*
X421362Y92421D02*
X421364Y88681D01*
X421362Y92421D02*
X421364Y88681D01*
X421358Y92421D02*
X425099D01*
X421358D02*
Y93996D01*
Y88681D02*
X425099D01*
X421358Y87106D02*
X425099D01*
X421358D02*
Y88681D01*
X391929Y51181D02*
X395472D01*
Y54134D01*
X391929Y51181D02*
Y54134D01*
X395472Y95473D02*
Y98425D01*
X391929D02*
X395472D01*
X391929Y95473D02*
Y98425D01*
X373031Y62401D02*
Y92520D01*
Y68501D02*
X373603D01*
X373031Y62401D02*
X381299Y54134D01*
X387399D02*
Y54705D01*
X381299Y54134D02*
X406102D01*
X414370Y62401D02*
Y92520D01*
X400003Y54134D02*
Y54705D01*
X413799Y68501D02*
X414370D01*
X406102Y54134D02*
X414370Y62401D01*
X373031Y81106D02*
X373603D01*
X375984Y95473D02*
X411417D01*
X387399Y94901D02*
Y95473D01*
X413799Y81106D02*
X414370D01*
X400003Y94901D02*
Y95473D01*
X374214Y81693D02*
X413188D01*
X149803Y51181D02*
X153346D01*
Y54134D01*
X149803Y51181D02*
Y54134D01*
X153346Y95473D02*
Y98425D01*
X149803D02*
X153346D01*
X149803Y95473D02*
Y98425D01*
X130905Y62401D02*
Y92520D01*
Y68501D02*
X131477D01*
X130905Y62401D02*
X139173Y54134D01*
X145272D02*
Y54705D01*
X139173Y54134D02*
X163976D01*
X172244Y62401D02*
Y92520D01*
X157877Y54134D02*
Y54705D01*
X171673Y68501D02*
X172244D01*
X163976Y54134D02*
X172244Y62401D01*
X130905Y81106D02*
X131477D01*
X133858Y95473D02*
X169291D01*
X145272Y94901D02*
Y95473D01*
X171673Y81106D02*
X172244D01*
X157877Y94901D02*
Y95473D01*
X132088Y81693D02*
X171062D01*
X521457Y51181D02*
X525000D01*
Y54134D01*
X521457Y51181D02*
Y54134D01*
X525000Y95473D02*
Y98425D01*
X521457D02*
X525000D01*
X521457Y95473D02*
Y98425D01*
X502559Y62402D02*
Y92520D01*
Y68501D02*
X503130D01*
X502559Y62402D02*
X510827Y54134D01*
X516926D02*
Y54705D01*
X510827Y54134D02*
X535630D01*
X543898Y62402D02*
Y92520D01*
X529531Y54134D02*
Y54705D01*
X543326Y68501D02*
X543898D01*
X535630Y54134D02*
X543898Y62402D01*
X502559Y81106D02*
X503130D01*
X505512Y95473D02*
X540945D01*
X516926Y94901D02*
Y95473D01*
X543326Y81106D02*
X543898D01*
X529531Y94901D02*
Y95473D01*
X503741Y81693D02*
X542716D01*
X277756Y51181D02*
X281299D01*
Y54134D01*
X277756Y51181D02*
Y54134D01*
X281299Y95473D02*
Y98425D01*
X277756D02*
X281299D01*
X277756Y95473D02*
Y98425D01*
X258858Y62401D02*
Y92520D01*
Y68501D02*
X259430D01*
X258858Y62401D02*
X267126Y54134D01*
X273225D02*
Y54705D01*
X267126Y54134D02*
X291929D01*
X300197Y62401D02*
Y92520D01*
X285830Y54134D02*
Y54705D01*
X299625Y68501D02*
X300197D01*
X291929Y54134D02*
X300197Y62401D01*
X258858Y81106D02*
X259430D01*
X261811Y95473D02*
X297244D01*
X273225Y94901D02*
Y95473D01*
X299625Y81106D02*
X300197D01*
X285830Y94901D02*
Y95473D01*
X260040Y81693D02*
X299015D01*
X321063Y51181D02*
X324606D01*
Y54134D01*
X321063Y51181D02*
Y54134D01*
X324606Y95473D02*
Y98425D01*
X321063D02*
X324606D01*
X321063Y95473D02*
Y98425D01*
X302165Y62401D02*
Y92520D01*
Y68501D02*
X302736D01*
X302165Y62401D02*
X310433Y54134D01*
X316532D02*
Y54705D01*
X310433Y54134D02*
X335236D01*
X343504Y62401D02*
Y92520D01*
X329137Y54134D02*
Y54705D01*
X342933Y68501D02*
X343504D01*
X335236Y54134D02*
X343504Y62401D01*
X302165Y81106D02*
X302736D01*
X305118Y95473D02*
X340551D01*
X316532Y94901D02*
Y95473D01*
X342933Y81106D02*
X343504D01*
X329137Y94901D02*
Y95473D01*
X303347Y81693D02*
X342322D01*
X458858Y51181D02*
X462401D01*
Y54134D01*
X458858Y51181D02*
Y54134D01*
X462401Y95473D02*
Y98425D01*
X458858D02*
X462401D01*
X458858Y95473D02*
Y98425D01*
X439960Y62401D02*
Y92520D01*
Y68501D02*
X440532D01*
X439960Y62401D02*
X448228Y54134D01*
X454327D02*
Y54705D01*
X448228Y54134D02*
X473032D01*
X481299Y62401D02*
Y92520D01*
X466932Y54134D02*
Y54705D01*
X480728Y68501D02*
X481299D01*
X473032Y54134D02*
X481299Y62401D01*
X439960Y81106D02*
X440532D01*
X442913Y95473D02*
X478346D01*
X454327Y94901D02*
Y95473D01*
X480728Y81106D02*
X481299D01*
X466932Y94901D02*
Y95473D01*
X441143Y81693D02*
X480117D01*
X216732Y51181D02*
X220275D01*
Y54134D01*
X216732Y51181D02*
Y54134D01*
X220275Y95473D02*
Y98425D01*
X216732D02*
X220275D01*
X216732Y95473D02*
Y98425D01*
X197835Y62401D02*
Y92520D01*
Y68501D02*
X198406D01*
X197835Y62401D02*
X206102Y54134D01*
X212201D02*
Y54705D01*
X206102Y54134D02*
X230905D01*
X239173Y62401D02*
Y92520D01*
X224806Y54134D02*
Y54705D01*
X238602Y68501D02*
X239173D01*
X230905Y54134D02*
X239173Y62401D01*
X197835Y81106D02*
X198406D01*
X200787Y95473D02*
X236220D01*
X212201Y94901D02*
Y95473D01*
X238602Y81106D02*
X239173D01*
X224806Y94901D02*
Y95473D01*
X199016Y81693D02*
X237991D01*
X82874Y51181D02*
X86417D01*
Y54134D01*
X82874Y51181D02*
Y54134D01*
X86417Y95473D02*
Y98425D01*
X82874D02*
X86417D01*
X82874Y95473D02*
Y98425D01*
X63976Y62401D02*
Y92520D01*
Y68501D02*
X64547D01*
X63976Y62401D02*
X72244Y54134D01*
X78343D02*
Y54705D01*
X72244Y54134D02*
X97047D01*
X105315Y62401D02*
Y92520D01*
X90948Y54134D02*
Y54705D01*
X104744Y68501D02*
X105315D01*
X97047Y54134D02*
X105315Y62401D01*
X63976Y81106D02*
X64547D01*
X66929Y95473D02*
X102362D01*
X78343Y94901D02*
Y95473D01*
X104744Y81106D02*
X105315D01*
X90948Y94901D02*
Y95473D01*
X65158Y81693D02*
X104133D01*
X497146Y144193D02*
Y145768D01*
X493405Y144193D02*
X497146D01*
X497142Y145768D02*
Y149508D01*
X497140Y145768D02*
X497142Y149508D01*
X497146D02*
Y151083D01*
X493409Y145768D02*
X493411Y149508D01*
X493409Y145768D02*
X493411Y149508D01*
X493405Y145768D02*
X497146D01*
X493405Y144193D02*
Y145768D01*
Y149508D02*
X497146D01*
X493405Y151083D02*
X497146D01*
X493405Y149508D02*
Y151083D01*
X490847Y144193D02*
Y145768D01*
X487106Y144193D02*
X490847D01*
X490843Y145768D02*
Y149508D01*
X490841Y145768D02*
X490843Y149508D01*
X490847D02*
Y151083D01*
X487110Y145768D02*
X487112Y149508D01*
X487110Y145768D02*
X487112Y149508D01*
X487106Y145768D02*
X490847D01*
X487106Y144193D02*
Y145768D01*
Y149508D02*
X490847D01*
X487106Y151083D02*
X490847D01*
X487106Y149508D02*
Y151083D01*
X484154Y167815D02*
Y169390D01*
X480413Y167815D02*
X484154D01*
X484150Y169390D02*
Y173130D01*
X484148Y169390D02*
X484150Y173130D01*
X484154D02*
Y174705D01*
X480417Y169390D02*
X480419Y173130D01*
X480417Y169390D02*
X480419Y173130D01*
X480413Y169390D02*
X484154D01*
X480413Y167815D02*
Y169390D01*
Y173130D02*
X484154D01*
X480413Y174705D02*
X484154D01*
X480413Y173130D02*
Y174705D01*
X474508Y173130D02*
Y174705D01*
X478248D01*
X474512Y169390D02*
Y173130D01*
Y169390D02*
X474514Y173130D01*
X474508Y167815D02*
Y169390D01*
X478242D02*
X478244Y173130D01*
X478242Y169390D02*
X478244Y173130D01*
X474508D02*
X478248D01*
Y174705D01*
X474508Y169390D02*
X478248D01*
X474508Y167815D02*
X478248D01*
Y169390D01*
X468602Y173130D02*
Y174705D01*
X472342D01*
X468606Y169390D02*
Y173130D01*
Y169390D02*
X468608Y173130D01*
X468602Y167815D02*
Y169390D01*
X472336D02*
X472338Y173130D01*
X472336Y169390D02*
X472338Y173130D01*
X468602D02*
X472342D01*
Y174705D01*
X468602Y169390D02*
X472342D01*
X468602Y167815D02*
X472342D01*
Y169390D01*
X458563Y175295D02*
X460138D01*
Y179035D01*
X458563Y175295D02*
Y179035D01*
X460138D01*
X453248Y175295D02*
X454823D01*
Y179035D01*
X453248D02*
X454823D01*
X453248Y175295D02*
Y179035D01*
X454823Y179031D02*
X458563D01*
X454823D02*
X458563Y179029D01*
X454823Y175301D02*
X458563Y175299D01*
X454823Y175301D02*
X458563Y175299D01*
X445964Y175383D02*
X447539D01*
Y179123D01*
X445964Y175383D02*
Y179123D01*
X447539D01*
X440650Y175383D02*
X442224D01*
Y179123D01*
X440650D02*
X442224D01*
X440650Y175383D02*
Y179123D01*
X442224Y179120D02*
X445964D01*
X442224D02*
X445964Y179118D01*
X442224Y175389D02*
X445964Y175387D01*
X442224Y175389D02*
X445964Y175387D01*
X433366Y175295D02*
X434941D01*
Y179035D01*
X433366Y175295D02*
Y179035D01*
X434941D01*
X428051Y175295D02*
X429626D01*
Y179035D01*
X428051D02*
X429626D01*
X428051Y175295D02*
Y179035D01*
X429626Y179031D02*
X433366D01*
X429626D02*
X433366Y179029D01*
X429626Y175301D02*
X433366Y175299D01*
X429626Y175301D02*
X433366Y175299D01*
X409154Y179035D02*
X410728D01*
X409154Y175295D02*
Y179035D01*
X410728Y175295D02*
Y179035D01*
X409154Y175295D02*
X410728D01*
X414468Y179035D02*
X416043D01*
X414468Y175295D02*
Y179035D01*
Y175295D02*
X416043D01*
Y179035D01*
X410728Y175299D02*
X414468D01*
X410728Y175301D02*
X414468Y175299D01*
X410728Y179032D02*
X414468Y179030D01*
X410728Y179032D02*
X414468Y179030D01*
X396161Y179035D02*
X397736D01*
X396161Y175295D02*
Y179035D01*
X397736Y175295D02*
Y179035D01*
X396161Y175295D02*
X397736D01*
X401476Y179035D02*
X403051D01*
X401476Y175295D02*
Y179035D01*
Y175295D02*
X403051D01*
Y179035D01*
X397736Y175299D02*
X401476D01*
X397736Y175301D02*
X401476Y175299D01*
X397736Y179032D02*
X401476Y179030D01*
X397736Y179032D02*
X401476Y179030D01*
X383169Y179035D02*
X384744D01*
X383169Y175295D02*
Y179035D01*
X384744Y175295D02*
Y179035D01*
X383169Y175295D02*
X384744D01*
X388484Y179035D02*
X390059D01*
X388484Y175295D02*
Y179035D01*
Y175295D02*
X390059D01*
Y179035D01*
X384744Y175299D02*
X388484D01*
X384744Y175301D02*
X388484Y175299D01*
X384744Y179032D02*
X388484Y179030D01*
X384744Y179032D02*
X388484Y179030D01*
X58563Y149311D02*
X60138Y149311D01*
Y153051D01*
X58563Y149311D02*
Y153051D01*
X60138D01*
X53248Y149311D02*
X54823D01*
Y153051D01*
X53248D02*
X54823D01*
X53248Y149311D02*
Y153051D01*
X54823Y153047D02*
X58563D01*
X54823D02*
X58563Y153045D01*
X54823Y149317D02*
X58563Y149315D01*
X54823Y149317D02*
X58563Y149315D01*
X256398Y137697D02*
X257972D01*
X256398Y133957D02*
Y137697D01*
X257972Y133957D02*
Y137697D01*
X256398Y133957D02*
X257972D01*
X261713Y137697D02*
X263287D01*
X261713Y133957D02*
Y137697D01*
Y133957D02*
X263287D01*
Y137697D01*
X257972Y133961D02*
X261713D01*
X257972Y133962D02*
X261713Y133961D01*
X257972Y137693D02*
X261713Y137691D01*
X257972Y137693D02*
X261713Y137691D01*
X244193Y136909D02*
X245768D01*
X244193Y133169D02*
Y136909D01*
X245768Y133169D02*
Y136909D01*
X244193Y133169D02*
X245768D01*
X249508Y136909D02*
X251083D01*
X249508Y133169D02*
Y136909D01*
Y133169D02*
X251083D01*
Y136909D01*
X245768Y133173D02*
X249508D01*
X245768Y133175D02*
X249508Y133173D01*
X245768Y136906D02*
X249508Y136904D01*
X245768Y136906D02*
X249508Y136904D01*
X148524Y139862D02*
X150098D01*
X148524D02*
Y143603D01*
X150098Y139866D02*
X153839D01*
X150098Y139868D02*
X153839Y139866D01*
Y139862D02*
X155413D01*
X150098Y143598D02*
X153839Y143596D01*
X150098Y143598D02*
X153839Y143596D01*
X150098Y139862D02*
Y143603D01*
X148524D02*
X150098D01*
X153839Y139862D02*
Y143603D01*
X155413Y139862D02*
Y143603D01*
X153839D02*
X155413D01*
X28051Y145965D02*
X29626D01*
X28051Y142224D02*
Y145965D01*
X29626Y142224D02*
Y145965D01*
X28051Y142224D02*
X29626D01*
X33366Y145965D02*
X34941D01*
X33366Y142224D02*
Y145965D01*
Y142224D02*
X34941D01*
Y145965D01*
X29626Y142228D02*
X33366D01*
X29626Y142230D02*
X33366Y142228D01*
X29626Y145961D02*
X33366Y145959D01*
X29626Y145961D02*
X33366Y145959D01*
X28051Y152264D02*
X29626D01*
X28051Y148524D02*
Y152264D01*
X29626Y148524D02*
Y152264D01*
X28051Y148524D02*
X29626D01*
X33366Y152264D02*
X34941D01*
X33366Y148524D02*
Y152264D01*
Y148524D02*
X34941D01*
Y152264D01*
X29626Y148528D02*
X33366D01*
X29626Y148529D02*
X33366Y148528D01*
X29626Y152260D02*
X33366Y152258D01*
X29626Y152260D02*
X33366Y152258D01*
X405413Y84350D02*
X406595D01*
X405413D02*
Y86516D01*
X406595D01*
Y86510D02*
X408366Y86512D01*
Y84350D02*
X409547D01*
X406595D02*
Y86516D01*
X409547Y84350D02*
Y86516D01*
X406595Y84354D02*
X408366D01*
X406595D02*
X408366Y84356D01*
X406595Y86510D02*
X408366Y86512D01*
Y84350D02*
Y86516D01*
X409547D01*
X82185Y149311D02*
X83760D01*
Y153051D01*
X82185Y149311D02*
Y153051D01*
X83760D01*
X76870Y149311D02*
X78445D01*
Y153051D01*
X76870D02*
X78445D01*
X76870Y149311D02*
Y153051D01*
X78445Y153047D02*
X82185D01*
X78445D02*
X82185Y153045D01*
X78445Y149317D02*
X82185Y149315D01*
X78445Y149317D02*
X82185Y149315D01*
X97539Y86510D02*
X99311Y86512D01*
X97539Y86510D02*
X99311Y86512D01*
X97539Y84354D02*
X99311Y84356D01*
X97539Y84354D02*
X99311D01*
X96358Y84350D02*
Y86516D01*
Y84350D02*
X97539D01*
Y86516D01*
X96358D02*
X97539D01*
X99311Y84350D02*
X100492D01*
X99311D02*
Y86516D01*
X100492Y84350D02*
Y86516D01*
X99311D02*
X100492D01*
X303445Y84354D02*
X305217Y84356D01*
X303445Y84354D02*
X305217Y84356D01*
X303445Y86510D02*
X305217Y86512D01*
X303445D02*
X305217D01*
X306398Y84350D02*
Y86516D01*
X305217D02*
X306398D01*
X305217Y84350D02*
Y86516D01*
Y84350D02*
X306398D01*
X302264Y86516D02*
X303445D01*
Y84350D02*
Y86516D01*
X302264Y84350D02*
Y86516D01*
Y84350D02*
X303445D01*
X525591Y149216D02*
X530315Y149213D01*
X525591Y152358D02*
X530315Y152362D01*
X524803Y149213D02*
X525984D01*
X524803D02*
Y152362D01*
X525591Y149213D02*
Y152358D01*
X524803Y152362D02*
X525984D01*
X529921D02*
X531102D01*
Y149213D02*
Y152362D01*
X529921Y149213D02*
X531102D01*
X530315D02*
Y152362D01*
X525595Y149221D02*
Y152354D01*
X530311Y149221D02*
Y152354D01*
X529940Y149221D02*
Y152354D01*
X525595D02*
X530311D01*
X525595Y149221D02*
X530311D01*
X525965D02*
Y152354D01*
X540654Y149705D02*
X540656Y153445D01*
X540654Y149705D02*
X540656Y153445D01*
X544384Y149705D02*
X544386Y153445D01*
Y149705D02*
Y153445D01*
X540650Y155020D02*
X544390D01*
Y153445D02*
Y155020D01*
X540650Y153445D02*
X544390D01*
X540650D02*
Y155020D01*
X544390Y148130D02*
Y149705D01*
X540650D02*
X544390D01*
X540650Y148130D02*
X544390D01*
X540650D02*
Y149705D01*
D137*
X30453Y135827D02*
G03*
X30453Y135827I-2500J0D01*
G01*
X30847Y159055D02*
G03*
X30847Y159055I-2500J0D01*
G01*
X30453Y125591D02*
G03*
X30453Y125591I-2500J0D01*
G01*
D138*
X493091Y131102D02*
D03*
X264783Y119685D02*
D03*
M02*
