G04*
G04 #@! TF.GenerationSoftware,Altium Limited,Altium Designer,22.0.2 (36)*
G04*
G04 Layer_Physical_Order=2*
G04 Layer_Color=32768*
%FSLAX25Y25*%
%MOIN*%
G70*
G04*
G04 #@! TF.SameCoordinates,9CD95DC0-35C4-498D-8BF3-3914FB8C140C*
G04*
G04*
G04 #@! TF.FilePolarity,Negative*
G04*
G01*
G75*
%ADD89C,0.04000*%
%ADD90C,0.08000*%
%ADD91C,0.07543*%
%ADD92C,0.17386*%
%ADD93C,0.09118*%
%ADD94C,0.05181*%
%ADD95C,0.05700*%
%ADD96C,0.05378*%
D89*
X0Y0D02*
X553150D01*
X553150Y196850D02*
X553150Y0D01*
X-0Y196850D02*
X553150Y196850D01*
X-0Y196850D02*
X0Y0D01*
D90*
X6710Y133143D02*
D03*
Y162943D02*
D03*
D91*
X348031Y144488D02*
D03*
X388032Y144488D02*
D03*
X378032D02*
D03*
X368032D02*
D03*
X358032D02*
D03*
X338032D02*
D03*
X50394Y191339D02*
D03*
X60394D02*
D03*
X70394D02*
D03*
X80394D02*
D03*
X90394D02*
D03*
X100394D02*
D03*
X110394D02*
D03*
X120394D02*
D03*
X130394D02*
D03*
X140394D02*
D03*
X150394D02*
D03*
X160394D02*
D03*
X170394D02*
D03*
X180394D02*
D03*
X190394D02*
D03*
X200394D02*
D03*
X210394D02*
D03*
X366142Y191732D02*
D03*
X376142D02*
D03*
X386142D02*
D03*
X396142D02*
D03*
X406142D02*
D03*
X416142D02*
D03*
X426142D02*
D03*
X436142D02*
D03*
X446142D02*
D03*
X456142D02*
D03*
X466142D02*
D03*
X476142D02*
D03*
X220394Y191339D02*
D03*
X230000D02*
D03*
X240000D02*
D03*
D92*
X139764Y17717D02*
D03*
X102362D02*
D03*
X177165D02*
D03*
X486221D02*
D03*
X263779Y17717D02*
D03*
X411417Y17717D02*
D03*
X448819D02*
D03*
X309055Y17717D02*
D03*
X19685Y94488D02*
D03*
X19685Y53150D02*
D03*
X216535Y114567D02*
D03*
X49213D02*
D03*
X9843Y15748D02*
D03*
X216535Y21654D02*
D03*
X525591Y114567D02*
D03*
X543307Y187008D02*
D03*
X525591Y21654D02*
D03*
X49213D02*
D03*
X9843Y187008D02*
D03*
X368110Y114567D02*
D03*
Y21654D02*
D03*
X543307Y15748D02*
D03*
D93*
X418898Y6299D02*
D03*
X448898D02*
D03*
X478898D02*
D03*
X109843D02*
D03*
X139842D02*
D03*
X169843D02*
D03*
X7087Y58976D02*
D03*
Y88976D02*
D03*
X301260Y6299D02*
D03*
X271260D02*
D03*
D94*
X235039Y162598D02*
D03*
Y172835D02*
D03*
X230709Y175197D02*
D03*
X270472Y184252D02*
D03*
X65748Y165748D02*
D03*
X71653Y151181D02*
D03*
X49213D02*
D03*
X83858Y155512D02*
D03*
X65930Y169823D02*
D03*
X338685Y177851D02*
D03*
X350102Y169190D02*
D03*
X350000Y181890D02*
D03*
X351969Y173228D02*
D03*
X349605Y176772D02*
D03*
X361811Y179921D02*
D03*
X361417Y183071D02*
D03*
X358661Y169291D02*
D03*
X362992Y152756D02*
D03*
X404331Y152362D02*
D03*
X408268Y151575D02*
D03*
X346165Y173126D02*
D03*
X404724Y138583D02*
D03*
X409055Y144882D02*
D03*
X408268Y137795D02*
D03*
X274410Y185433D02*
D03*
X268110Y133465D02*
D03*
X237795Y130709D02*
D03*
X422835Y80709D02*
D03*
X355906D02*
D03*
X113779D02*
D03*
X46850D02*
D03*
X96063Y110236D02*
D03*
X108661Y135827D02*
D03*
X112992Y135039D02*
D03*
X116929Y133858D02*
D03*
X112992Y150393D02*
D03*
X108267Y132283D02*
D03*
X90945Y147244D02*
D03*
X121457Y141732D02*
D03*
Y137401D02*
D03*
X241338Y130708D02*
D03*
X240944Y118504D02*
D03*
X249212Y130708D02*
D03*
X247329Y120388D02*
D03*
X244881Y130708D02*
D03*
X90551Y129921D02*
D03*
X92520Y138583D02*
D03*
X173622Y178346D02*
D03*
X364173Y89370D02*
D03*
X470078Y121260D02*
D03*
X465747Y118110D02*
D03*
X453149Y120866D02*
D03*
X458267Y119291D02*
D03*
X446063Y117323D02*
D03*
X474803Y121260D02*
D03*
X431102Y89370D02*
D03*
X432676Y131889D02*
D03*
X443307Y114961D02*
D03*
X122047Y89370D02*
D03*
X105512Y171260D02*
D03*
X101969Y157874D02*
D03*
X115354Y168110D02*
D03*
X247638Y159843D02*
D03*
X252362Y162205D02*
D03*
X182677Y172441D02*
D03*
X318897Y142126D02*
D03*
X408977Y155741D02*
D03*
X409449Y159055D02*
D03*
X412992Y156299D02*
D03*
X375590Y179921D02*
D03*
X373228Y172047D02*
D03*
X261811Y170615D02*
D03*
X290158Y170472D02*
D03*
X351968Y166535D02*
D03*
X364173Y176771D02*
D03*
X358268Y185039D02*
D03*
X275197Y163193D02*
D03*
X296457Y113386D02*
D03*
X255512Y181496D02*
D03*
X263779Y106299D02*
D03*
Y102362D02*
D03*
X259842Y106299D02*
D03*
Y102362D02*
D03*
X263779Y98425D02*
D03*
X259842D02*
D03*
X240157Y56102D02*
D03*
X236220Y56693D02*
D03*
X240157Y51181D02*
D03*
X237697Y53445D02*
D03*
X234449D02*
D03*
X232677Y56693D02*
D03*
X231102Y53445D02*
D03*
X237795Y48917D02*
D03*
X240157Y46260D02*
D03*
X235827Y45669D02*
D03*
X234547Y48917D02*
D03*
X231201D02*
D03*
X232283Y45669D02*
D03*
X229134Y56693D02*
D03*
X227953Y48917D02*
D03*
X227854Y53445D02*
D03*
X228740Y45669D02*
D03*
X106299Y56102D02*
D03*
X102362Y56693D02*
D03*
X106299Y51181D02*
D03*
X103839Y53445D02*
D03*
X100591D02*
D03*
X98819Y56693D02*
D03*
X97244Y53445D02*
D03*
X103937Y48917D02*
D03*
X106299Y46260D02*
D03*
X101969Y45669D02*
D03*
X100689Y48917D02*
D03*
X97342D02*
D03*
X98425Y45669D02*
D03*
X95276Y56693D02*
D03*
X94095Y48917D02*
D03*
X93996Y53445D02*
D03*
X94882Y45669D02*
D03*
X173228Y56102D02*
D03*
X169291Y56693D02*
D03*
X173228Y51181D02*
D03*
X170768Y53445D02*
D03*
X167520D02*
D03*
X165748Y56693D02*
D03*
X164173Y53445D02*
D03*
X170866Y48917D02*
D03*
X173228Y46260D02*
D03*
X168898Y45669D02*
D03*
X167618Y48917D02*
D03*
X164272D02*
D03*
X165354Y45669D02*
D03*
X162205Y56693D02*
D03*
X161024Y48917D02*
D03*
X160925Y53445D02*
D03*
X161811Y45669D02*
D03*
X482283Y56102D02*
D03*
X478346Y56693D02*
D03*
X482283Y51181D02*
D03*
X479823Y53445D02*
D03*
X476575D02*
D03*
X474803Y56693D02*
D03*
X473228Y53445D02*
D03*
X479921Y48917D02*
D03*
X482283Y46260D02*
D03*
X477953Y45669D02*
D03*
X476673Y48917D02*
D03*
X473327D02*
D03*
X474409Y45669D02*
D03*
X471260Y56693D02*
D03*
X470079Y48917D02*
D03*
X469980Y53445D02*
D03*
X470866Y45669D02*
D03*
X415354Y56102D02*
D03*
X411417Y56693D02*
D03*
X415354Y51181D02*
D03*
X412894Y53445D02*
D03*
X409646D02*
D03*
X407874Y56693D02*
D03*
X406299Y53445D02*
D03*
X412992Y48917D02*
D03*
X415354Y46260D02*
D03*
X411024Y45669D02*
D03*
X409744Y48917D02*
D03*
X406398D02*
D03*
X407480Y45669D02*
D03*
X404331Y56693D02*
D03*
X403150Y48917D02*
D03*
X403051Y53445D02*
D03*
X403937Y45669D02*
D03*
X347244Y56102D02*
D03*
X343307Y56693D02*
D03*
X347244Y51181D02*
D03*
X344783Y53445D02*
D03*
X341535D02*
D03*
X339764Y56693D02*
D03*
X338189Y53445D02*
D03*
X344882Y48917D02*
D03*
X347244Y46260D02*
D03*
X342913Y45669D02*
D03*
X341634Y48917D02*
D03*
X338287D02*
D03*
X339370Y45669D02*
D03*
X336220Y56693D02*
D03*
X335039Y48917D02*
D03*
X334941Y53445D02*
D03*
X335827Y45669D02*
D03*
X549213Y56102D02*
D03*
X545275Y56693D02*
D03*
X549213Y51181D02*
D03*
X546752Y53445D02*
D03*
X543504D02*
D03*
X541732Y56693D02*
D03*
X540157Y53445D02*
D03*
X546850Y48917D02*
D03*
X549213Y46260D02*
D03*
X544882Y45669D02*
D03*
X543602Y48917D02*
D03*
X540256D02*
D03*
X541338Y45669D02*
D03*
X538189Y56693D02*
D03*
X537008Y48917D02*
D03*
X536909Y53445D02*
D03*
X537795Y45669D02*
D03*
X471654Y162598D02*
D03*
X148031Y132283D02*
D03*
X300394Y144488D02*
D03*
X295923Y140017D02*
D03*
X298070Y142341D02*
D03*
X291732Y144882D02*
D03*
X276772Y150394D02*
D03*
Y153937D02*
D03*
Y160236D02*
D03*
X476378Y132283D02*
D03*
X433071Y136221D02*
D03*
X437007Y135039D02*
D03*
X142534Y120252D02*
D03*
X409842Y110236D02*
D03*
X405118D02*
D03*
X261811Y80709D02*
D03*
Y82677D02*
D03*
X269685D02*
D03*
Y80709D02*
D03*
X267717D02*
D03*
Y82677D02*
D03*
X265748D02*
D03*
Y80709D02*
D03*
X263779D02*
D03*
Y82677D02*
D03*
X355906Y74803D02*
D03*
X353937Y76771D02*
D03*
Y70866D02*
D03*
Y72834D02*
D03*
Y74803D02*
D03*
X357874Y76771D02*
D03*
Y74803D02*
D03*
Y72834D02*
D03*
Y70866D02*
D03*
X355906D02*
D03*
Y72834D02*
D03*
Y76771D02*
D03*
X420866Y70866D02*
D03*
Y72834D02*
D03*
Y74803D02*
D03*
Y76771D02*
D03*
X424803D02*
D03*
Y74803D02*
D03*
Y72834D02*
D03*
Y70866D02*
D03*
X422834D02*
D03*
Y72834D02*
D03*
Y74803D02*
D03*
Y76771D02*
D03*
X487795Y70866D02*
D03*
Y72834D02*
D03*
Y74803D02*
D03*
Y76771D02*
D03*
X491732D02*
D03*
Y74803D02*
D03*
Y72834D02*
D03*
Y70866D02*
D03*
X489764D02*
D03*
Y72834D02*
D03*
Y74803D02*
D03*
Y76771D02*
D03*
X180709D02*
D03*
Y74803D02*
D03*
Y72834D02*
D03*
Y70866D02*
D03*
X182677D02*
D03*
Y72834D02*
D03*
Y74803D02*
D03*
Y76771D02*
D03*
X178740D02*
D03*
Y74803D02*
D03*
Y72834D02*
D03*
Y70866D02*
D03*
X113779Y76771D02*
D03*
Y74803D02*
D03*
Y72834D02*
D03*
Y70866D02*
D03*
X115748D02*
D03*
Y72834D02*
D03*
Y74803D02*
D03*
Y76771D02*
D03*
X111811D02*
D03*
Y74803D02*
D03*
Y72834D02*
D03*
Y70866D02*
D03*
X483858Y151181D02*
D03*
X479134Y162303D02*
D03*
X472440Y132283D02*
D03*
X440945Y133465D02*
D03*
X487008Y156693D02*
D03*
X282283Y170472D02*
D03*
X481496Y133071D02*
D03*
X303543Y167323D02*
D03*
X439764Y163779D02*
D03*
X369685Y172047D02*
D03*
X286221Y170472D02*
D03*
X148031Y149606D02*
D03*
X288583Y143307D02*
D03*
X303543Y147638D02*
D03*
X304330Y151181D02*
D03*
X233071Y114173D02*
D03*
X450197Y146063D02*
D03*
X445866D02*
D03*
X454528D02*
D03*
X445866Y137401D02*
D03*
Y141732D02*
D03*
X450197Y137401D02*
D03*
Y141732D02*
D03*
X454528Y137401D02*
D03*
Y141732D02*
D03*
X458858Y137401D02*
D03*
Y141732D02*
D03*
Y146063D02*
D03*
X463189Y137401D02*
D03*
Y141732D02*
D03*
Y146063D02*
D03*
X467520Y137401D02*
D03*
Y141732D02*
D03*
Y146063D02*
D03*
X143110Y141732D02*
D03*
X121457Y146063D02*
D03*
X125787Y137401D02*
D03*
Y141732D02*
D03*
Y146063D02*
D03*
X130118Y137401D02*
D03*
Y141732D02*
D03*
Y146063D02*
D03*
X134449Y137401D02*
D03*
Y141732D02*
D03*
Y146063D02*
D03*
X138779Y137401D02*
D03*
Y141732D02*
D03*
X143110Y137401D02*
D03*
Y146063D02*
D03*
X138779D02*
D03*
X135039Y166142D02*
D03*
X116929Y177165D02*
D03*
X130315Y165354D02*
D03*
X97244Y153937D02*
D03*
X435039Y144882D02*
D03*
X440945Y151181D02*
D03*
X435433Y151181D02*
D03*
X459055Y161811D02*
D03*
X422835Y160630D02*
D03*
X425983Y163779D02*
D03*
X414961Y163386D02*
D03*
X456298Y163779D02*
D03*
X450787Y184646D02*
D03*
X468898Y179134D02*
D03*
X91732Y169685D02*
D03*
X305118Y120472D02*
D03*
X288583Y127165D02*
D03*
X290551Y129921D02*
D03*
X296850Y119685D02*
D03*
X305118Y125590D02*
D03*
X320078Y134645D02*
D03*
X320472Y139206D02*
D03*
X536221Y150787D02*
D03*
X46850Y76771D02*
D03*
X44882D02*
D03*
X46850Y74803D02*
D03*
X44882D02*
D03*
Y72834D02*
D03*
Y70866D02*
D03*
X46850D02*
D03*
X48819D02*
D03*
X46850Y72834D02*
D03*
X48819D02*
D03*
Y76771D02*
D03*
Y74803D02*
D03*
X55118Y89764D02*
D03*
X96850Y137008D02*
D03*
X100787Y110236D02*
D03*
X118504Y113386D02*
D03*
X121260Y116535D02*
D03*
X129134Y120866D02*
D03*
X134646Y119291D02*
D03*
X333858Y178347D02*
D03*
X250394Y144882D02*
D03*
X257874Y142520D02*
D03*
X261811Y141732D02*
D03*
X258268Y164173D02*
D03*
X322441Y119685D02*
D03*
X316535Y126378D02*
D03*
X321260Y123622D02*
D03*
X312205Y133071D02*
D03*
X307480Y123228D02*
D03*
X310630Y120472D02*
D03*
X315354Y131890D02*
D03*
X312205Y125984D02*
D03*
X353543Y135827D02*
D03*
X332283Y128740D02*
D03*
X325197Y131102D02*
D03*
X298819Y168898D02*
D03*
X289370Y176772D02*
D03*
X268898Y176378D02*
D03*
X271260Y178347D02*
D03*
X336614Y163386D02*
D03*
X334252Y167717D02*
D03*
X331496Y169685D02*
D03*
X328740Y172047D02*
D03*
X325984Y173622D02*
D03*
X323622Y176378D02*
D03*
X315354Y182283D02*
D03*
X311811D02*
D03*
X308268Y182677D02*
D03*
X311024Y185827D02*
D03*
X332677Y189370D02*
D03*
X329528Y188976D02*
D03*
X248228Y194291D02*
D03*
X263780Y86614D02*
D03*
Y84646D02*
D03*
X265748D02*
D03*
Y86614D02*
D03*
X267717D02*
D03*
Y84646D02*
D03*
X269685D02*
D03*
Y86614D02*
D03*
X261811D02*
D03*
Y84646D02*
D03*
Y88583D02*
D03*
X269685D02*
D03*
X267717D02*
D03*
X265748D02*
D03*
X263780D02*
D03*
X228740Y142913D02*
D03*
X241339Y183465D02*
D03*
X243701Y172835D02*
D03*
X192913Y179921D02*
D03*
X197244D02*
D03*
X245669Y157087D02*
D03*
X242126D02*
D03*
X231890Y140945D02*
D03*
X222835Y142913D02*
D03*
X240551Y172835D02*
D03*
X238189Y182677D02*
D03*
X248031Y142520D02*
D03*
X238189Y137795D02*
D03*
X238976Y142126D02*
D03*
X178347Y174409D02*
D03*
X191732Y168504D02*
D03*
X225197Y176378D02*
D03*
Y173622D02*
D03*
Y170472D02*
D03*
Y164961D02*
D03*
X212205Y180709D02*
D03*
X209842Y178740D02*
D03*
Y175591D02*
D03*
X209449Y172047D02*
D03*
X204331Y159843D02*
D03*
X200787Y159449D02*
D03*
X217717Y158661D02*
D03*
X201969Y144095D02*
D03*
X201575Y150394D02*
D03*
X200000Y153150D02*
D03*
X223622Y156693D02*
D03*
X167323Y163386D02*
D03*
X164961Y166142D02*
D03*
X162205Y168504D02*
D03*
X169291Y157480D02*
D03*
X174409Y146457D02*
D03*
X191732Y144882D02*
D03*
X188189D02*
D03*
X184252D02*
D03*
X180709D02*
D03*
X177559D02*
D03*
X171653Y150394D02*
D03*
X86614Y176772D02*
D03*
D95*
X38780Y125394D02*
D03*
X226772Y182283D02*
D03*
X219685Y148819D02*
D03*
D96*
X402362Y125984D02*
D03*
X413386Y125591D02*
D03*
X512992Y143307D02*
D03*
X116142Y147244D02*
D03*
X250787Y120079D02*
D03*
X247638Y110630D02*
D03*
X464567Y111023D02*
D03*
X147559Y25512D02*
D03*
X150787Y17717D02*
D03*
X139764Y28740D02*
D03*
X147559Y9922D02*
D03*
X139764Y6693D02*
D03*
X131969Y25512D02*
D03*
X128740Y17717D02*
D03*
X131969Y9922D02*
D03*
X110157Y25512D02*
D03*
X113386Y17717D02*
D03*
X102362Y28740D02*
D03*
X110157Y9922D02*
D03*
X102362Y6693D02*
D03*
X94567Y25512D02*
D03*
X91338Y17717D02*
D03*
X94567Y9922D02*
D03*
X184960Y25512D02*
D03*
X188189Y17717D02*
D03*
X177165Y28740D02*
D03*
X184960Y9922D02*
D03*
X177165Y6693D02*
D03*
X169370Y25512D02*
D03*
X166142Y17717D02*
D03*
X169370Y9922D02*
D03*
X494015Y25512D02*
D03*
X497244Y17717D02*
D03*
X486221Y28740D02*
D03*
X494015Y9922D02*
D03*
X486221Y6693D02*
D03*
X478426Y25512D02*
D03*
X475197Y17717D02*
D03*
X478426Y9922D02*
D03*
X271574Y25511D02*
D03*
X274803Y17717D02*
D03*
X263779Y28740D02*
D03*
X271574Y9922D02*
D03*
X263779Y6693D02*
D03*
X255984Y25511D02*
D03*
X252756Y17717D02*
D03*
X255984Y9922D02*
D03*
X419212Y25512D02*
D03*
X422441Y17717D02*
D03*
X411417Y28740D02*
D03*
X419212Y9922D02*
D03*
X411417Y6693D02*
D03*
X403622Y25512D02*
D03*
X400394Y17717D02*
D03*
X403622Y9922D02*
D03*
X456614Y25512D02*
D03*
X459842Y17717D02*
D03*
X448819Y28740D02*
D03*
X456614Y9922D02*
D03*
X448819Y6693D02*
D03*
X441024Y25512D02*
D03*
X437795Y17717D02*
D03*
X441024Y9922D02*
D03*
X316850Y25511D02*
D03*
X320079Y17717D02*
D03*
X309055Y28740D02*
D03*
X316850Y9922D02*
D03*
X309055Y6693D02*
D03*
X301260Y25511D02*
D03*
X298031Y17717D02*
D03*
X301260Y9922D02*
D03*
X27480Y102283D02*
D03*
X30709Y94488D02*
D03*
X19685Y105512D02*
D03*
X27480Y86693D02*
D03*
X19685Y83464D02*
D03*
X11890Y102283D02*
D03*
X8661Y94488D02*
D03*
X11890Y86693D02*
D03*
X27480Y60944D02*
D03*
X30709Y53150D02*
D03*
X19685Y64173D02*
D03*
X27480Y45355D02*
D03*
X19685Y42126D02*
D03*
X11890Y60944D02*
D03*
X8662Y53150D02*
D03*
X11890Y45355D02*
D03*
X137008Y110236D02*
D03*
X422047Y131496D02*
D03*
X270866Y119291D02*
D03*
X477165Y116142D02*
D03*
X274803Y119291D02*
D03*
X425984Y151575D02*
D03*
X516535Y159055D02*
D03*
X500394Y125197D02*
D03*
X495669D02*
D03*
X507874Y183071D02*
D03*
X513779D02*
D03*
X519685D02*
D03*
X525591D02*
D03*
X527559Y177165D02*
D03*
Y171260D02*
D03*
X523622Y167323D02*
D03*
X516535D02*
D03*
X505905Y177165D02*
D03*
X483465Y185827D02*
D03*
X488189Y170866D02*
D03*
X501968Y143307D02*
D03*
X505905Y171260D02*
D03*
X509842Y167323D02*
D03*
X494488Y156693D02*
D03*
X96457Y131890D02*
D03*
X337008Y157874D02*
D03*
X150787Y147244D02*
D03*
M02*
