G04*
G04 #@! TF.GenerationSoftware,Altium Limited,Altium Designer,22.0.2 (36)*
G04*
G04 Layer_Color=16711935*
%FSLAX25Y25*%
%MOIN*%
G70*
G04*
G04 #@! TF.SameCoordinates,9CD95DC0-35C4-498D-8BF3-3914FB8C140C*
G04*
G04*
G04 #@! TF.FilePolarity,Positive*
G04*
G01*
G75*
G36*
X32431Y182450D02*
X33506Y182005D01*
X34473Y181359D01*
X35296Y180536D01*
X35942Y179569D01*
X36387Y178494D01*
X36614Y177353D01*
Y177353D01*
D01*
Y176772D01*
Y176190D01*
X36387Y175049D01*
X35942Y173974D01*
X35296Y173007D01*
X34473Y172185D01*
X33506Y171538D01*
X32431Y171093D01*
X31290Y170866D01*
X30127D01*
X28986Y171093D01*
X27911Y171538D01*
X26944Y172185D01*
X26122Y173007D01*
X25475Y173974D01*
X25030Y175049D01*
X24803Y176190D01*
Y176190D01*
Y176772D01*
Y177353D01*
D01*
Y177353D01*
X25030Y178494D01*
X25475Y179569D01*
X26122Y180536D01*
X26944Y181359D01*
X27911Y182005D01*
X28986Y182450D01*
X30127Y182677D01*
X31290D01*
X32431Y182450D01*
D02*
G37*
G36*
X541093Y115915D02*
X542167Y115470D01*
X543135Y114823D01*
X543957Y114001D01*
X544603Y113033D01*
X545049Y111959D01*
X545276Y110818D01*
Y110818D01*
D01*
Y110236D01*
Y109655D01*
X545049Y108514D01*
X544603Y107439D01*
X543957Y106472D01*
X543135Y105649D01*
X542167Y105003D01*
X541093Y104558D01*
X539952Y104331D01*
X538788D01*
X537647Y104558D01*
X536573Y105003D01*
X535605Y105649D01*
X534783Y106472D01*
X534137Y107439D01*
X533692Y108514D01*
X533465Y109655D01*
Y109655D01*
Y110236D01*
Y110818D01*
D01*
Y110818D01*
X533692Y111959D01*
X534137Y113033D01*
X534783Y114001D01*
X535605Y114823D01*
X536573Y115470D01*
X537647Y115915D01*
X538788Y116142D01*
X539952D01*
X541093Y115915D01*
D02*
G37*
M02*
