G04*
G04 #@! TF.GenerationSoftware,Altium Limited,Altium Designer,22.0.2 (36)*
G04*
G04 Layer_Color=32768*
%FSLAX25Y25*%
%MOIN*%
G70*
G04*
G04 #@! TF.SameCoordinates,9CD95DC0-35C4-498D-8BF3-3914FB8C140C*
G04*
G04*
G04 #@! TF.FilePolarity,Positive*
G04*
G01*
G75*
%ADD10C,0.00394*%
%ADD16C,0.00500*%
%ADD69C,0.03937*%
%ADD136C,0.00197*%
%ADD137C,0.00300*%
%ADD139C,0.01968*%
%ADD140C,0.01000*%
%ADD141C,0.02500*%
%ADD142C,0.00787*%
D10*
X542126Y122835D02*
X546063D01*
X544095Y120866D02*
Y124803D01*
X498032Y129134D02*
Y133071D01*
X496063Y131102D02*
X500000D01*
X527953Y135827D02*
X531890D01*
X529921Y133858D02*
Y137795D01*
X490158Y183071D02*
Y187008D01*
X488189Y185039D02*
X492126D01*
X327559Y123031D02*
Y126575D01*
X325787Y124803D02*
X329331D01*
X391732Y161024D02*
Y166535D01*
X379921Y161024D02*
Y166535D01*
X391732D01*
X379921Y161024D02*
X391732D01*
Y155118D02*
Y160630D01*
X379921Y155118D02*
Y160630D01*
X391732D01*
X379921Y155118D02*
X391732D01*
X195276Y175984D02*
X200787D01*
X195276Y164173D02*
X200787D01*
X195276D02*
Y175984D01*
X200787Y164173D02*
Y175984D01*
X201969D02*
X207480D01*
X201969Y164173D02*
X207480D01*
X201969D02*
Y175984D01*
X207480Y164173D02*
Y175984D01*
X326378Y151969D02*
X331890D01*
X326378Y163779D02*
X331890D01*
X326378Y151969D02*
Y163779D01*
X331890Y151969D02*
Y163779D01*
X342520Y130315D02*
Y135827D01*
X330709Y130315D02*
Y135827D01*
Y130315D02*
X342520D01*
X330709Y135827D02*
X342520D01*
X80709Y124016D02*
X86221D01*
X80709Y135827D02*
X86221D01*
Y124016D02*
Y135827D01*
X80709Y124016D02*
Y135827D01*
X38976Y74803D02*
Y78740D01*
X37008Y76772D02*
X40945D01*
X212598Y85039D02*
Y90551D01*
X224409Y85039D02*
Y90551D01*
X212598D02*
X224409D01*
X212598Y85039D02*
X224409D01*
X233465Y95669D02*
Y101181D01*
X245275Y95669D02*
Y101181D01*
X233465D02*
X245275D01*
X233465Y95669D02*
X245275D01*
X259842Y102362D02*
X263779D01*
X261811Y100394D02*
Y104331D01*
X281496Y94882D02*
Y100394D01*
X293307Y94882D02*
Y100394D01*
X281496D02*
X293307D01*
X281496Y94882D02*
X293307D01*
X301181Y105512D02*
Y111024D01*
X312992Y105512D02*
Y111024D01*
X301181D02*
X312992D01*
X301181Y105512D02*
X312992D01*
X50000Y84646D02*
Y96457D01*
X44488D02*
X50000D01*
X44488Y84646D02*
X50000D01*
X44488D02*
Y96457D01*
X60236D02*
X65748D01*
X60236Y84646D02*
X65748D01*
Y96457D01*
X60236Y84646D02*
Y96457D01*
X85827D02*
X91338D01*
X85827Y84646D02*
X91338D01*
Y96457D01*
X85827Y84646D02*
Y96457D01*
X116929Y84646D02*
Y96457D01*
X111417D02*
X116929D01*
X111417Y84646D02*
X116929D01*
X111417D02*
Y96457D01*
X127165D02*
X132677D01*
X127165Y84646D02*
X132677D01*
Y96457D01*
X127165Y84646D02*
Y96457D01*
X152756D02*
X158267D01*
X152756Y84646D02*
X158267D01*
Y96457D01*
X152756Y84646D02*
Y96457D01*
X190157D02*
X195669D01*
X190157Y84646D02*
X195669D01*
Y96457D01*
X190157Y84646D02*
Y96457D01*
X404725Y124016D02*
X410236D01*
X404725Y135827D02*
X410236D01*
X404725Y124016D02*
Y135827D01*
X410236Y124016D02*
Y135827D01*
X359055Y84646D02*
Y96457D01*
X353543D02*
X359055D01*
X353543Y84646D02*
X359055D01*
X353543D02*
Y96457D01*
X369291Y84645D02*
X374803D01*
X369291Y96456D02*
X374803D01*
X369291Y84645D02*
Y96456D01*
X374803Y84645D02*
Y96456D01*
X499213Y84645D02*
X504724D01*
X499213Y96456D02*
X504724D01*
X499213Y84645D02*
Y96456D01*
X504724Y84645D02*
Y96456D01*
X461811Y84646D02*
X467323D01*
X461811Y96457D02*
X467323D01*
X461811Y84646D02*
Y96457D01*
X467323Y84646D02*
Y96457D01*
X528740Y84645D02*
X534252D01*
X528740Y96456D02*
X534252D01*
X528740Y84645D02*
Y96456D01*
X534252Y84645D02*
Y96456D01*
X436221Y84645D02*
X441732D01*
X436221Y96456D02*
X441732D01*
X436221Y84645D02*
Y96456D01*
X441732Y84645D02*
Y96456D01*
X394882Y84646D02*
X400394D01*
X394882Y96457D02*
X400394D01*
X394882Y84646D02*
Y96457D01*
X400394Y84646D02*
Y96457D01*
X425984Y84646D02*
Y96457D01*
X420472D02*
X425984D01*
X420472Y84646D02*
X425984D01*
X420472D02*
Y96457D01*
X289947Y156088D02*
X292731Y158872D01*
X289947Y158872D02*
X292731Y156088D01*
X498032Y141732D02*
Y153543D01*
X492520Y141732D02*
X498032D01*
X492520Y153543D02*
X498032D01*
X492520Y141732D02*
Y153543D01*
X491732Y141733D02*
Y153543D01*
X486221Y141733D02*
X491732D01*
X486221Y153543D02*
X491732D01*
X486221Y141733D02*
Y153543D01*
X485039Y165354D02*
Y177165D01*
X479528Y165354D02*
X485039D01*
X479528Y177165D02*
X485039D01*
X479528Y165354D02*
Y177165D01*
X473622Y165354D02*
Y177165D01*
X479134D01*
X473622Y165354D02*
X479134D01*
Y177165D01*
X467717Y165354D02*
Y177165D01*
X473228D01*
X467717Y165354D02*
X473228D01*
Y177165D01*
X498031Y72835D02*
Y76772D01*
X496063Y74803D02*
X500000D01*
X429134Y84646D02*
X433071D01*
X431102Y82677D02*
Y86614D01*
X362205Y84646D02*
X366142D01*
X364173Y82677D02*
Y86614D01*
X348031Y74803D02*
Y78740D01*
X346063Y76772D02*
X350000D01*
X259842Y117717D02*
Y121653D01*
X257874Y119685D02*
X261811D01*
X450787Y174409D02*
Y179921D01*
X462599Y174409D02*
Y179921D01*
X450787Y174409D02*
X462599D01*
X450787Y179921D02*
X462599D01*
X438189Y174497D02*
Y180009D01*
X450000Y174497D02*
Y180009D01*
X438189Y174497D02*
X450000D01*
X438189Y180009D02*
X450000D01*
X425590Y174409D02*
Y179921D01*
X437401Y174409D02*
Y179921D01*
X425590Y174409D02*
X437401D01*
X425590Y179921D02*
X437401D01*
X418504Y174409D02*
Y179921D01*
X406693Y174409D02*
Y179921D01*
X418504D01*
X406693Y174409D02*
X418504D01*
X405512Y174409D02*
Y179921D01*
X393701Y174409D02*
Y179921D01*
X405512D01*
X393701Y174409D02*
X405512D01*
X392520Y174409D02*
Y179921D01*
X380709Y174409D02*
Y179921D01*
X392520D01*
X380709Y174409D02*
X392520D01*
X318504Y157874D02*
X322441D01*
X320472Y155905D02*
Y159843D01*
X50787Y148425D02*
Y153937D01*
X62598Y148425D02*
Y153937D01*
X50787Y148425D02*
X62598Y148425D01*
X50787Y153937D02*
X62598D01*
X265748Y133071D02*
Y138583D01*
X253937Y133071D02*
Y138583D01*
X265748D01*
X253937Y133071D02*
X265748D01*
X253543Y132283D02*
Y137795D01*
X241732Y132283D02*
Y137795D01*
X253543D01*
X241732Y132283D02*
X253543D01*
X146063Y138977D02*
X157874D01*
X146063D02*
Y144488D01*
X157874Y138977D02*
Y144488D01*
X146063D02*
X157874D01*
X350787Y116142D02*
Y120079D01*
X348819Y118110D02*
X352756D01*
X120079Y84646D02*
X124016D01*
X122047Y82677D02*
Y86614D01*
X190945Y72835D02*
Y76772D01*
X188976Y74803D02*
X192913D01*
X498031Y124016D02*
Y127953D01*
X496063Y125984D02*
X500000D01*
X37402Y141339D02*
Y146850D01*
X25591Y141339D02*
Y146850D01*
X37402D01*
X25591Y141339D02*
X37402D01*
X37402Y147638D02*
Y153150D01*
X25591Y147638D02*
Y153150D01*
X37402D01*
X25591Y147638D02*
X37402D01*
X53149Y84646D02*
X57086D01*
X55118Y82677D02*
Y86614D01*
X454724Y141732D02*
X458661D01*
X456693Y139764D02*
Y143701D01*
X130315Y141732D02*
X134252D01*
X132283Y139764D02*
Y143701D01*
X260630Y149803D02*
Y153347D01*
X258858Y151575D02*
X262402D01*
X287008Y161221D02*
Y164764D01*
X285236Y162992D02*
X288779D01*
X292520Y161221D02*
Y164764D01*
X290748Y162992D02*
X294291D01*
X298819Y150591D02*
Y154134D01*
X297047Y152362D02*
X300590D01*
X287008Y150591D02*
Y154134D01*
X285236Y152362D02*
X288779D01*
X281496Y161221D02*
Y164764D01*
X279724Y162992D02*
X283268D01*
X298819Y161221D02*
Y164764D01*
X297047Y162992D02*
X300590D01*
X281496Y150591D02*
Y154134D01*
X279724Y152362D02*
X283268D01*
X292520Y150591D02*
Y154134D01*
X290748Y152362D02*
X294291D01*
X304331Y156102D02*
Y159646D01*
X302559Y157874D02*
X306102D01*
X267520Y158661D02*
X271063D01*
X269291Y156890D02*
Y160433D01*
X272047Y149016D02*
Y152559D01*
X270276Y150787D02*
X273819D01*
X474606Y151575D02*
X478150D01*
X476378Y149803D02*
Y153346D01*
X474606Y137795D02*
X478150D01*
X476378Y136023D02*
Y139567D01*
X474606Y145669D02*
X478150D01*
X476378Y143897D02*
Y147441D01*
X472638Y126772D02*
X476181D01*
X474409Y125000D02*
Y128543D01*
X461614Y126772D02*
X465158D01*
X463386Y125000D02*
Y128543D01*
X454528Y116142D02*
X458071D01*
X456299Y114370D02*
Y117913D01*
X440158Y141535D02*
Y145079D01*
X438386Y143307D02*
X441929D01*
X454921Y157087D02*
X458465D01*
X456693Y155315D02*
Y158858D01*
X445866Y127559D02*
X449409D01*
X447638Y125787D02*
Y129331D01*
X430512Y163386D02*
X434055D01*
X432283Y161614D02*
Y165157D01*
X435236Y127559D02*
X438779D01*
X437008Y125787D02*
Y129331D01*
X430709Y152953D02*
Y156496D01*
X428937Y154724D02*
X432480D01*
X261221Y182283D02*
X264764D01*
X262992Y180512D02*
Y184055D01*
X261221Y177165D02*
X264764D01*
X262992Y175394D02*
Y178937D01*
X427165Y130118D02*
Y133661D01*
X425394Y131890D02*
X428937D01*
X423228Y122244D02*
Y125787D01*
X421457Y124016D02*
X425000D01*
X250394Y149803D02*
Y153347D01*
X248622Y151575D02*
X252165D01*
X144291Y115354D02*
X147835D01*
X146063Y113583D02*
Y117126D01*
X130118Y116142D02*
X133661D01*
X131890Y114370D02*
Y117913D01*
X139567Y151181D02*
X143110D01*
X141339Y149409D02*
Y152953D01*
X130512Y161811D02*
X134055D01*
X132283Y160039D02*
Y163583D01*
X122638Y127953D02*
X126181D01*
X124409Y126181D02*
Y129724D01*
X108858Y163386D02*
X112401D01*
X110630Y161614D02*
Y165157D01*
X110827Y127953D02*
X114370D01*
X112598Y126181D02*
Y129724D01*
X103740Y150394D02*
X107283D01*
X105512Y148622D02*
Y152165D01*
X255118Y171457D02*
Y175000D01*
X253346Y173228D02*
X256890D01*
X250000Y171457D02*
Y175000D01*
X248228Y173228D02*
X251772D01*
X101969Y130118D02*
Y133661D01*
X100197Y131890D02*
X103740D01*
X98819Y122244D02*
Y125787D01*
X97047Y124016D02*
X100591D01*
X266535Y149016D02*
Y152559D01*
X264764Y150787D02*
X268307D01*
X270276Y113779D02*
X273819D01*
X272047Y112008D02*
Y115551D01*
X242126Y106496D02*
Y110039D01*
X240354Y108268D02*
X243898D01*
X403346Y83268D02*
Y87598D01*
Y83268D02*
X411614D01*
X403346Y87598D02*
X411614D01*
Y83268D02*
Y87598D01*
X74409Y148425D02*
Y153937D01*
X86221Y148425D02*
Y153937D01*
X74409Y148425D02*
X86221D01*
X74409Y153937D02*
X86221D01*
X66929Y167323D02*
X70866D01*
X68898Y165354D02*
Y169291D01*
X326772Y140551D02*
Y144488D01*
X324803Y142520D02*
X328740D01*
X94291Y83268D02*
Y87598D01*
X102559Y83268D02*
Y87598D01*
X94291D02*
X102559D01*
X94291Y83268D02*
X102559D01*
X308465D02*
Y87598D01*
X300197Y83268D02*
Y87598D01*
Y83268D02*
X308465D01*
X300197Y87598D02*
X308465D01*
X545276Y145669D02*
Y157480D01*
X539764Y145669D02*
Y157480D01*
Y145669D02*
X545276D01*
X539764Y157480D02*
X545276D01*
D16*
X531496Y144882D02*
Y181102D01*
X501575Y144882D02*
X531496D01*
X501575D02*
Y181102D01*
X531496D01*
D69*
X516535Y162992D02*
D03*
D136*
X550787Y118898D02*
Y126772D01*
X537402Y118898D02*
Y126772D01*
X550787D01*
X537402Y118898D02*
X550787D01*
X489370Y126378D02*
X506693D01*
X489370Y135827D02*
X506693D01*
Y126378D02*
Y135827D01*
X489370Y126378D02*
Y135827D01*
X515157Y127953D02*
X544685D01*
X515157D02*
Y143701D01*
X544685Y127953D02*
Y143701D01*
X515157D02*
X544685D01*
X494095Y178346D02*
Y191732D01*
X486221D02*
X494095D01*
X486221Y178346D02*
X494095D01*
X486221D02*
Y191732D01*
X323228Y126969D02*
X331890D01*
X323228Y122638D02*
X331890D01*
Y126969D01*
X323228Y122638D02*
Y126969D01*
X42913Y70079D02*
Y83465D01*
X35039D02*
X42913D01*
X35039Y70079D02*
X42913D01*
X35039D02*
Y83465D01*
X272067Y93307D02*
Y111417D01*
X251555D02*
X272067D01*
X251555Y93307D02*
X272067D01*
X251555D02*
Y111417D01*
X291339Y120176D02*
X328643Y157480D01*
X254035Y157480D02*
X291339Y120176D01*
X291339Y194784D02*
X328643Y157480D01*
X254035Y157480D02*
X291339Y194784D01*
X501968Y68110D02*
Y81496D01*
X494094D02*
X501968D01*
X494094Y68110D02*
X501968D01*
X494094D02*
Y81496D01*
X438976Y69095D02*
Y100197D01*
X423228D02*
X438976D01*
X423228Y69095D02*
X438976D01*
X423228D02*
Y100197D01*
X372047Y69095D02*
Y100197D01*
X356299D02*
X372047D01*
X356299Y69095D02*
X372047D01*
X356299D02*
Y100197D01*
X351969Y70079D02*
Y83465D01*
X344094D02*
X351969D01*
X344094Y70079D02*
X351969D01*
X344094D02*
Y83465D01*
X251181Y114961D02*
X268504D01*
X251181Y124409D02*
X268504D01*
X251181Y114961D02*
Y124409D01*
X268504Y114961D02*
Y124409D01*
X309449Y150394D02*
Y165354D01*
X331496Y150394D02*
Y165354D01*
X309449D02*
X331496D01*
X309449Y150394D02*
X331496D01*
X346850Y111417D02*
X354724D01*
Y124803D01*
X346850Y111417D02*
Y124803D01*
X354724D01*
X129921Y69095D02*
Y100197D01*
X114173D02*
X129921D01*
X114173Y69095D02*
X129921D01*
X114173D02*
Y100197D01*
X194882Y68110D02*
Y81496D01*
X187008D02*
X194882D01*
X187008Y68110D02*
X194882D01*
X187008D02*
Y81496D01*
X512598Y112599D02*
Y139370D01*
X483464Y112599D02*
X512598D01*
X483464Y139370D02*
X512598D01*
X483464Y112599D02*
Y139370D01*
X62992Y69095D02*
Y100197D01*
X47244D02*
X62992D01*
X47244Y69095D02*
X62992D01*
X47244D02*
Y100197D01*
X427953Y123031D02*
Y160433D01*
X485433Y123031D02*
Y160433D01*
X427953Y123031D02*
X485433D01*
X427953Y160433D02*
X485433D01*
X103543Y123031D02*
Y160433D01*
X161023Y123031D02*
Y160433D01*
X103543Y123031D02*
X161023D01*
X103543Y160433D02*
X161023D01*
X258465Y155905D02*
X262795D01*
X258465Y147244D02*
X262795D01*
X258465D02*
Y155905D01*
X262795Y147244D02*
Y155905D01*
X284842Y167323D02*
X289173D01*
X284842Y158661D02*
X289173D01*
X284842D02*
Y167323D01*
X289173Y158661D02*
Y167323D01*
X290354D02*
X294685D01*
X290354Y158661D02*
X294685D01*
X290354D02*
Y167323D01*
X294685Y158661D02*
Y167323D01*
X296654Y156693D02*
X300984D01*
X296654Y148031D02*
X300984D01*
X296654D02*
Y156693D01*
X300984Y148031D02*
Y156693D01*
X284842D02*
X289173D01*
X284842Y148031D02*
X289173D01*
X284842D02*
Y156693D01*
X289173Y148031D02*
Y156693D01*
X279331Y158661D02*
X283661D01*
X279331Y167323D02*
X283661D01*
Y158661D02*
Y167323D01*
X279331Y158661D02*
Y167323D01*
X296654D02*
X300984D01*
X296654Y158661D02*
X300984D01*
X296654D02*
Y167323D01*
X300984Y158661D02*
Y167323D01*
X279331Y148031D02*
X283661D01*
X279331Y156693D02*
X283661D01*
Y148031D02*
Y156693D01*
X279331Y148031D02*
Y156693D01*
X290354Y148031D02*
X294685D01*
X290354Y156693D02*
X294685D01*
Y148031D02*
Y156693D01*
X290354Y148031D02*
Y156693D01*
X302165Y153543D02*
X306496D01*
X302165Y162205D02*
X306496D01*
Y153543D02*
Y162205D01*
X302165Y153543D02*
Y162205D01*
X264961Y156496D02*
Y160827D01*
X273622Y156496D02*
Y160827D01*
X264961Y156496D02*
X273622D01*
X264961Y160827D02*
X273622D01*
X269882Y155118D02*
X274213D01*
X269882Y146457D02*
X274213D01*
X269882D02*
Y155118D01*
X274213Y146457D02*
Y155118D01*
X480709Y149409D02*
Y153740D01*
X472047Y149409D02*
Y153740D01*
X480709D01*
X472047Y149409D02*
X480709D01*
Y135630D02*
Y139961D01*
X472047Y135630D02*
Y139961D01*
X480709D01*
X472047Y135630D02*
X480709D01*
Y143504D02*
Y147835D01*
X472047Y143504D02*
Y147835D01*
X480709D01*
X472047Y143504D02*
X480709D01*
X470079Y124606D02*
Y128937D01*
X478740Y124606D02*
Y128937D01*
X470079Y124606D02*
X478740D01*
X470079Y128937D02*
X478740D01*
X459055Y124606D02*
Y128937D01*
X467717Y124606D02*
Y128937D01*
X459055Y124606D02*
X467717D01*
X459055Y128937D02*
X467717D01*
X451968Y113976D02*
Y118307D01*
X460630Y113976D02*
Y118307D01*
X451968Y113976D02*
X460630D01*
X451968Y118307D02*
X460630D01*
X437992Y138976D02*
X442323D01*
X437992Y147638D02*
X442323D01*
Y138976D02*
Y147638D01*
X437992Y138976D02*
Y147638D01*
X461024Y154921D02*
Y159252D01*
X452362Y154921D02*
Y159252D01*
X461024D01*
X452362Y154921D02*
X461024D01*
X443307Y125394D02*
Y129724D01*
X451968Y125394D02*
Y129724D01*
X443307Y125394D02*
X451968D01*
X443307Y129724D02*
X451968D01*
X427953Y161220D02*
Y165551D01*
X436614Y161220D02*
Y165551D01*
X427953Y161220D02*
X436614D01*
X427953Y165551D02*
X436614D01*
X441339Y125394D02*
Y129724D01*
X432677Y125394D02*
Y129724D01*
X441339D01*
X432677Y125394D02*
X441339D01*
X428543Y159055D02*
X432874D01*
X428543Y150394D02*
X432874D01*
X428543D02*
Y159055D01*
X432874Y150394D02*
Y159055D01*
X267323Y180118D02*
Y184449D01*
X258661Y180118D02*
Y184449D01*
Y180118D02*
X267323D01*
X258661Y184449D02*
X267323D01*
Y175000D02*
Y179331D01*
X258661Y175000D02*
Y179331D01*
Y175000D02*
X267323D01*
X258661Y179331D02*
X267323D01*
X425000Y127559D02*
X429331D01*
X425000Y136220D02*
X429331D01*
Y127559D02*
Y136220D01*
X425000Y127559D02*
Y136220D01*
X421063Y119685D02*
X425394D01*
X421063Y128346D02*
X425394D01*
X421063Y119685D02*
Y128346D01*
X425394Y119685D02*
Y128346D01*
X248228Y155905D02*
X252559D01*
X248228Y147244D02*
X252559D01*
X248228D02*
Y155905D01*
X252559Y147244D02*
Y155905D01*
X141732Y113189D02*
Y117520D01*
X150394Y113189D02*
Y117520D01*
X141732Y113189D02*
X150394D01*
X141732Y117520D02*
X150394D01*
X127559Y113976D02*
Y118307D01*
X136221Y113976D02*
Y118307D01*
X127559Y113976D02*
X136221D01*
X127559Y118307D02*
X136221D01*
X137008Y149016D02*
Y153347D01*
X145669Y149016D02*
Y153347D01*
X137008Y149016D02*
X145669D01*
X137008Y153347D02*
X145669D01*
X136614Y159646D02*
Y163977D01*
X127953Y159646D02*
Y163977D01*
X136614D01*
X127953Y159646D02*
X136614D01*
X120079Y125787D02*
Y130118D01*
X128740Y125787D02*
Y130118D01*
X120079Y125787D02*
X128740D01*
X120079Y130118D02*
X128740D01*
X106299Y161220D02*
Y165551D01*
X114961Y161220D02*
Y165551D01*
X106299Y161220D02*
X114961D01*
X106299Y165551D02*
X114961D01*
X116929Y125787D02*
Y130118D01*
X108268Y125787D02*
Y130118D01*
X116929D01*
X108268Y125787D02*
X116929D01*
X101181Y148228D02*
Y152559D01*
X109843Y148228D02*
Y152559D01*
X101181Y148228D02*
X109843D01*
X101181Y152559D02*
X109843D01*
X252953Y168898D02*
X257283D01*
X252953Y177559D02*
X257283D01*
X252953Y168898D02*
Y177559D01*
X257283Y168898D02*
Y177559D01*
X247835Y168898D02*
X252165D01*
X247835Y177559D02*
X252165D01*
X247835Y168898D02*
Y177559D01*
X252165Y168898D02*
Y177559D01*
X99803Y127559D02*
X104134D01*
X99803Y136221D02*
X104134D01*
Y127559D02*
Y136221D01*
X99803Y127559D02*
Y136221D01*
X96653Y119685D02*
X100984D01*
X96653Y128346D02*
X100984D01*
X96653Y119685D02*
Y128346D01*
X100984Y119685D02*
Y128346D01*
X264370Y155118D02*
X268701D01*
X264370Y146457D02*
X268701D01*
X264370D02*
Y155118D01*
X268701Y146457D02*
Y155118D01*
X267717Y111614D02*
Y115945D01*
X276378Y111614D02*
Y115945D01*
X267717D02*
X276378D01*
X267717Y111614D02*
X276378D01*
X239961Y103937D02*
X244291D01*
X239961Y112598D02*
X244291D01*
Y103937D02*
Y112598D01*
X239961Y103937D02*
Y112598D01*
X54331Y156496D02*
X83465D01*
X54331D02*
Y178150D01*
X83465Y156496D02*
Y178150D01*
X54331D02*
X83465D01*
X322835Y149213D02*
X330709D01*
X322835Y135827D02*
Y149213D01*
X330709Y135827D02*
Y149213D01*
X322835Y135827D02*
X330709D01*
D137*
X332870Y110898D02*
X345870D01*
Y126898D01*
X332870D02*
X345870D01*
X332870Y110898D02*
Y126898D01*
X521850Y153445D02*
X534055D01*
Y148130D02*
Y153445D01*
X521850Y148130D02*
X534055D01*
X521850D02*
Y153445D01*
D139*
X339370Y118898D02*
D03*
D140*
X385827Y163779D02*
D03*
Y157874D02*
D03*
X198031Y170079D02*
D03*
X204724D02*
D03*
X329134Y157874D02*
D03*
X336614Y133071D02*
D03*
X83465Y129921D02*
D03*
X218504Y87795D02*
D03*
X239370Y98425D02*
D03*
X287401Y97638D02*
D03*
X307087Y108268D02*
D03*
X47244Y90551D02*
D03*
X62992D02*
D03*
X88582Y90551D02*
D03*
X114173Y90551D02*
D03*
X129921D02*
D03*
X155512Y90551D02*
D03*
X192913Y90551D02*
D03*
X407480Y129921D02*
D03*
X356299Y90551D02*
D03*
X372047Y90551D02*
D03*
X501968Y90551D02*
D03*
X464567Y90551D02*
D03*
X531496Y90551D02*
D03*
X438976Y90551D02*
D03*
X397638Y90551D02*
D03*
X423228Y90551D02*
D03*
X495275Y147638D02*
D03*
X488976Y147638D02*
D03*
X482283Y171260D02*
D03*
X476378D02*
D03*
X470472D02*
D03*
X456693Y177165D02*
D03*
X444095Y177253D02*
D03*
X431496Y177165D02*
D03*
X412598Y177165D02*
D03*
X399606Y177165D02*
D03*
X386614Y177165D02*
D03*
X56693Y151181D02*
D03*
X259843Y135827D02*
D03*
X247638Y135039D02*
D03*
X151968Y141732D02*
D03*
X31496Y144094D02*
D03*
X31496Y150394D02*
D03*
X80315Y151181D02*
D03*
X527953Y150787D02*
D03*
X542520Y151575D02*
D03*
D141*
X393701Y74803D02*
D03*
X151575D02*
D03*
X523228Y74803D02*
D03*
X279527Y74803D02*
D03*
X322834D02*
D03*
X460630D02*
D03*
X218504D02*
D03*
X84645D02*
D03*
D142*
X407480Y85433D02*
D03*
X98425D02*
D03*
X304331D02*
D03*
M02*
